<svg width="2620" height="436" viewBox="0 0 2620 436" fill="none" xmlns="http://www.w3.org/2000/svg">
<rect width="2620" height="436" fill="#00AEEF"/>
<path d="M94.8125 137V103.18H102.992L112.602 127.484H112.742L122.352 103.18H130.531V137H124.227V114.125H120.945L128.023 104.117L114.898 137H110.445L97.3203 104.117L104.398 114.125H101.117V137H94.8125ZM142.531 137.398C140.859 137.398 139.391 137.078 138.125 136.438C136.859 135.781 135.867 134.883 135.148 133.742C134.445 132.586 134.094 131.273 134.094 129.805V129.758C134.094 128.227 134.477 126.922 135.242 125.844C136.008 124.75 137.117 123.891 138.57 123.266C140.023 122.641 141.789 122.258 143.867 122.117L153.664 121.508V125.773L144.898 126.336C143.586 126.414 142.586 126.727 141.898 127.273C141.211 127.805 140.867 128.516 140.867 129.406V129.453C140.867 130.375 141.219 131.102 141.922 131.633C142.625 132.148 143.57 132.406 144.758 132.406C145.773 132.406 146.68 132.211 147.477 131.82C148.289 131.414 148.922 130.867 149.375 130.18C149.844 129.477 150.078 128.688 150.078 127.812V120.195C150.078 119.086 149.727 118.211 149.023 117.57C148.32 116.914 147.297 116.586 145.953 116.586C144.672 116.586 143.656 116.852 142.906 117.383C142.156 117.914 141.695 118.586 141.523 119.398L141.477 119.609H135.219L135.242 119.328C135.367 117.781 135.875 116.406 136.766 115.203C137.672 114 138.922 113.062 140.516 112.391C142.125 111.703 144.031 111.359 146.234 111.359C148.406 111.359 150.289 111.711 151.883 112.414C153.477 113.102 154.711 114.078 155.586 115.344C156.477 116.609 156.922 118.086 156.922 119.773V137H150.078V133.25H149.938C149.469 134.109 148.859 134.852 148.109 135.477C147.375 136.086 146.539 136.562 145.602 136.906C144.664 137.234 143.641 137.398 142.531 137.398ZM161.492 137V111.875H168.336V137H161.492ZM164.914 108.641C163.883 108.641 163.016 108.289 162.312 107.586C161.609 106.883 161.258 106.047 161.258 105.078C161.258 104.094 161.609 103.258 162.312 102.57C163.016 101.867 163.883 101.516 164.914 101.516C165.945 101.516 166.812 101.867 167.516 102.57C168.219 103.258 168.57 104.094 168.57 105.078C168.57 106.047 168.219 106.883 167.516 107.586C166.812 108.289 165.945 108.641 164.914 108.641ZM172.93 137V111.875H179.773V116H179.914C180.57 114.562 181.539 113.43 182.82 112.602C184.102 111.773 185.688 111.359 187.578 111.359C190.344 111.359 192.477 112.195 193.977 113.867C195.492 115.523 196.25 117.828 196.25 120.781V137H189.406V122.188C189.406 120.547 189.016 119.281 188.234 118.391C187.469 117.484 186.32 117.031 184.789 117.031C183.773 117.031 182.891 117.266 182.141 117.734C181.391 118.188 180.805 118.828 180.383 119.656C179.977 120.484 179.773 121.453 179.773 122.562V137H172.93ZM210.688 137V103.18H217.766V131.164H232.555V137H210.688ZM247.367 137.516C244.82 137.516 242.617 136.992 240.758 135.945C238.898 134.898 237.461 133.398 236.445 131.445C235.43 129.492 234.922 127.156 234.922 124.438V124.391C234.922 121.688 235.438 119.367 236.469 117.43C237.5 115.477 238.945 113.977 240.805 112.93C242.664 111.883 244.844 111.359 247.344 111.359C249.859 111.359 252.047 111.883 253.906 112.93C255.781 113.961 257.234 115.453 258.266 117.406C259.297 119.344 259.812 121.672 259.812 124.391V124.438C259.812 127.172 259.297 129.516 258.266 131.469C257.25 133.422 255.812 134.922 253.953 135.969C252.094 137 249.898 137.516 247.367 137.516ZM247.391 132.148C248.5 132.148 249.461 131.852 250.273 131.258C251.102 130.648 251.734 129.773 252.172 128.633C252.625 127.477 252.852 126.078 252.852 124.438V124.391C252.852 122.766 252.625 121.383 252.172 120.242C251.719 119.102 251.078 118.234 250.25 117.641C249.422 117.031 248.453 116.727 247.344 116.727C246.25 116.727 245.289 117.031 244.461 117.641C243.648 118.234 243.016 119.102 242.562 120.242C242.109 121.383 241.883 122.766 241.883 124.391V124.438C241.883 126.078 242.102 127.477 242.539 128.633C242.992 129.773 243.633 130.648 244.461 131.258C245.289 131.852 246.266 132.148 247.391 132.148ZM275.094 145.719C272.797 145.719 270.789 145.398 269.07 144.758C267.367 144.133 266.008 143.281 264.992 142.203C263.992 141.125 263.383 139.914 263.164 138.57L263.141 138.359H269.797L269.867 138.523C270.148 139.133 270.734 139.672 271.625 140.141C272.516 140.609 273.672 140.844 275.094 140.844C276.859 140.844 278.203 140.422 279.125 139.578C280.047 138.734 280.508 137.609 280.508 136.203V132.359H280.367C279.93 133.234 279.336 133.992 278.586 134.633C277.836 135.273 276.953 135.773 275.938 136.133C274.938 136.477 273.828 136.648 272.609 136.648C270.516 136.648 268.703 136.148 267.172 135.148C265.656 134.148 264.484 132.719 263.656 130.859C262.844 128.984 262.438 126.75 262.438 124.156V124.133C262.438 121.461 262.852 119.172 263.68 117.266C264.523 115.359 265.711 113.898 267.242 112.883C268.773 111.867 270.602 111.359 272.727 111.359C273.914 111.359 275 111.555 275.984 111.945C276.969 112.336 277.828 112.891 278.562 113.609C279.312 114.328 279.914 115.18 280.367 116.164H280.508V111.875H287.352V136.297C287.352 138.156 286.852 139.789 285.852 141.195C284.867 142.617 283.453 143.727 281.609 144.523C279.781 145.32 277.609 145.719 275.094 145.719ZM274.977 131.633C276.102 131.633 277.078 131.336 277.906 130.742C278.734 130.148 279.375 129.305 279.828 128.211C280.297 127.117 280.531 125.82 280.531 124.32V124.297C280.531 122.797 280.297 121.508 279.828 120.43C279.375 119.336 278.727 118.5 277.883 117.922C277.055 117.328 276.086 117.031 274.977 117.031C273.852 117.031 272.867 117.328 272.023 117.922C271.18 118.5 270.531 119.328 270.078 120.406C269.625 121.484 269.398 122.781 269.398 124.297V124.32C269.398 125.82 269.625 127.117 270.078 128.211C270.531 129.305 271.18 130.148 272.023 130.742C272.867 131.336 273.852 131.633 274.977 131.633ZM303.383 137.516C300.836 137.516 298.633 136.992 296.773 135.945C294.914 134.898 293.477 133.398 292.461 131.445C291.445 129.492 290.938 127.156 290.938 124.438V124.391C290.938 121.688 291.453 119.367 292.484 117.43C293.516 115.477 294.961 113.977 296.82 112.93C298.68 111.883 300.859 111.359 303.359 111.359C305.875 111.359 308.062 111.883 309.922 112.93C311.797 113.961 313.25 115.453 314.281 117.406C315.312 119.344 315.828 121.672 315.828 124.391V124.438C315.828 127.172 315.312 129.516 314.281 131.469C313.266 133.422 311.828 134.922 309.969 135.969C308.109 137 305.914 137.516 303.383 137.516ZM303.406 132.148C304.516 132.148 305.477 131.852 306.289 131.258C307.117 130.648 307.75 129.773 308.188 128.633C308.641 127.477 308.867 126.078 308.867 124.438V124.391C308.867 122.766 308.641 121.383 308.188 120.242C307.734 119.102 307.094 118.234 306.266 117.641C305.438 117.031 304.469 116.727 303.359 116.727C302.266 116.727 301.305 117.031 300.477 117.641C299.664 118.234 299.031 119.102 298.578 120.242C298.125 121.383 297.898 122.766 297.898 124.391V124.438C297.898 126.078 298.117 127.477 298.555 128.633C299.008 129.773 299.648 130.648 300.477 131.258C301.305 131.852 302.281 132.148 303.406 132.148Z" fill="white"/>
<path d="M1132.96 137L1124.01 103.18H1131.34L1136.69 127.414H1136.83L1143.06 103.18H1149.27L1155.51 127.414H1155.65L1161.02 103.18H1168.35L1159.38 137H1152.46L1146.25 114.336H1146.11L1139.88 137H1132.96ZM1180.3 137.516C1177.76 137.516 1175.55 136.992 1173.7 135.945C1171.84 134.898 1170.4 133.398 1169.38 131.445C1168.37 129.492 1167.86 127.156 1167.86 124.438V124.391C1167.86 121.688 1168.38 119.367 1169.41 117.43C1170.44 115.477 1171.88 113.977 1173.74 112.93C1175.6 111.883 1177.78 111.359 1180.28 111.359C1182.8 111.359 1184.98 111.883 1186.84 112.93C1188.72 113.961 1190.17 115.453 1191.2 117.406C1192.23 119.344 1192.75 121.672 1192.75 124.391V124.438C1192.75 127.172 1192.23 129.516 1191.2 131.469C1190.19 133.422 1188.75 134.922 1186.89 135.969C1185.03 137 1182.84 137.516 1180.3 137.516ZM1180.33 132.148C1181.44 132.148 1182.4 131.852 1183.21 131.258C1184.04 130.648 1184.67 129.773 1185.11 128.633C1185.56 127.477 1185.79 126.078 1185.79 124.438V124.391C1185.79 122.766 1185.56 121.383 1185.11 120.242C1184.66 119.102 1184.02 118.234 1183.19 117.641C1182.36 117.031 1181.39 116.727 1180.28 116.727C1179.19 116.727 1178.23 117.031 1177.4 117.641C1176.59 118.234 1175.95 119.102 1175.5 120.242C1175.05 121.383 1174.82 122.766 1174.82 124.391V124.438C1174.82 126.078 1175.04 127.477 1175.48 128.633C1175.93 129.773 1176.57 130.648 1177.4 131.258C1178.23 131.852 1179.2 132.148 1180.33 132.148ZM1196.29 137V111.875H1203.13V116.258H1203.27C1203.65 114.711 1204.33 113.508 1205.31 112.648C1206.3 111.789 1207.52 111.359 1208.99 111.359C1209.37 111.359 1209.73 111.383 1210.07 111.43C1210.41 111.477 1210.71 111.539 1210.96 111.617V117.641C1210.68 117.531 1210.32 117.445 1209.88 117.383C1209.45 117.305 1208.98 117.266 1208.48 117.266C1207.35 117.266 1206.39 117.484 1205.59 117.922C1204.8 118.359 1204.19 119 1203.77 119.844C1203.34 120.688 1203.13 121.719 1203.13 122.938V137H1196.29ZM1222.28 137.516C1220.17 137.516 1218.35 136.992 1216.82 135.945C1215.29 134.898 1214.11 133.398 1213.28 131.445C1212.47 129.492 1212.06 127.156 1212.06 124.438V124.414C1212.06 121.68 1212.48 119.344 1213.3 117.406C1214.13 115.453 1215.3 113.961 1216.82 112.93C1218.35 111.883 1220.17 111.359 1222.28 111.359C1223.47 111.359 1224.56 111.555 1225.56 111.945C1226.56 112.336 1227.44 112.898 1228.19 113.633C1228.95 114.352 1229.56 115.219 1230.02 116.234H1230.16V103.18H1237V137H1230.16V132.711H1230.02C1229.58 133.711 1228.98 134.57 1228.23 135.289C1227.48 135.992 1226.61 136.539 1225.61 136.93C1224.61 137.32 1223.5 137.516 1222.28 137.516ZM1224.58 131.844C1225.69 131.844 1226.66 131.547 1227.51 130.953C1228.35 130.344 1229.01 129.484 1229.48 128.375C1229.95 127.266 1230.18 125.953 1230.18 124.438V124.414C1230.18 122.898 1229.94 121.594 1229.45 120.5C1228.98 119.391 1228.33 118.539 1227.48 117.945C1226.66 117.336 1225.69 117.031 1224.58 117.031C1223.44 117.031 1222.45 117.328 1221.62 117.922C1220.8 118.516 1220.16 119.367 1219.7 120.477C1219.25 121.57 1219.02 122.883 1219.02 124.414V124.438C1219.02 125.953 1219.24 127.266 1219.68 128.375C1220.13 129.484 1220.77 130.344 1221.6 130.953C1222.45 131.547 1223.44 131.844 1224.58 131.844ZM1251.67 137V103.18H1259.85L1269.46 127.484H1269.6L1279.21 103.18H1287.39V137H1281.09V114.125H1277.8L1284.88 104.117L1271.76 137H1267.3L1254.18 104.117L1261.26 114.125H1257.98V137H1251.67ZM1299.39 137.398C1297.72 137.398 1296.25 137.078 1294.98 136.438C1293.72 135.781 1292.73 134.883 1292.01 133.742C1291.3 132.586 1290.95 131.273 1290.95 129.805V129.758C1290.95 128.227 1291.34 126.922 1292.1 125.844C1292.87 124.75 1293.98 123.891 1295.43 123.266C1296.88 122.641 1298.65 122.258 1300.73 122.117L1310.52 121.508V125.773L1301.76 126.336C1300.45 126.414 1299.45 126.727 1298.76 127.273C1298.07 127.805 1297.73 128.516 1297.73 129.406V129.453C1297.73 130.375 1298.08 131.102 1298.78 131.633C1299.48 132.148 1300.43 132.406 1301.62 132.406C1302.63 132.406 1303.54 132.211 1304.34 131.82C1305.15 131.414 1305.78 130.867 1306.23 130.18C1306.7 129.477 1306.94 128.688 1306.94 127.812V120.195C1306.94 119.086 1306.59 118.211 1305.88 117.57C1305.18 116.914 1304.16 116.586 1302.81 116.586C1301.53 116.586 1300.52 116.852 1299.77 117.383C1299.02 117.914 1298.55 118.586 1298.38 119.398L1298.34 119.609H1292.08L1292.1 119.328C1292.23 117.781 1292.73 116.406 1293.62 115.203C1294.53 114 1295.78 113.062 1297.38 112.391C1298.98 111.703 1300.89 111.359 1303.09 111.359C1305.27 111.359 1307.15 111.711 1308.74 112.414C1310.34 113.102 1311.57 114.078 1312.45 115.344C1313.34 116.609 1313.78 118.086 1313.78 119.773V137H1306.94V133.25H1306.8C1306.33 134.109 1305.72 134.852 1304.97 135.477C1304.23 136.086 1303.4 136.562 1302.46 136.906C1301.52 137.234 1300.5 137.398 1299.39 137.398ZM1318.21 137V111.875H1325.05V116.258H1325.2C1325.57 114.711 1326.25 113.508 1327.23 112.648C1328.22 111.789 1329.45 111.359 1330.91 111.359C1331.29 111.359 1331.65 111.383 1331.99 111.43C1332.34 111.477 1332.63 111.539 1332.88 111.617V117.641C1332.6 117.531 1332.24 117.445 1331.8 117.383C1331.37 117.305 1330.9 117.266 1330.4 117.266C1329.27 117.266 1328.31 117.484 1327.52 117.922C1326.72 118.359 1326.11 119 1325.69 119.844C1325.27 120.688 1325.05 121.719 1325.05 122.938V137H1318.21ZM1335.93 137V103.18H1342.77V137H1335.93ZM1351.73 137L1343.97 125.891L1348.3 120.688L1359.62 137H1351.73ZM1341.93 129.594V121.93H1342.91L1351.4 111.875H1359.16L1347.55 125.07H1346.03L1341.93 129.594Z" fill="white"/>
<path d="M2055.81 137V103.18H2062.89V137H2055.81ZM2079.41 137.516C2076.87 137.516 2074.66 136.984 2072.8 135.922C2070.95 134.859 2069.52 133.352 2068.52 131.398C2067.52 129.43 2067.02 127.102 2067.02 124.414V124.391C2067.02 121.703 2067.52 119.391 2068.52 117.453C2069.53 115.5 2070.96 114 2072.8 112.953C2074.66 111.891 2076.84 111.359 2079.34 111.359C2081.62 111.359 2083.6 111.789 2085.27 112.648C2086.95 113.492 2088.25 114.641 2089.19 116.094C2090.14 117.547 2090.66 119.18 2090.76 120.992V121.156H2084.41L2084.36 120.945C2084.16 119.742 2083.64 118.742 2082.81 117.945C2081.98 117.133 2080.86 116.727 2079.44 116.727C2078.33 116.727 2077.36 117.039 2076.53 117.664C2075.72 118.273 2075.09 119.156 2074.63 120.312C2074.2 121.453 2073.98 122.82 2073.98 124.414V124.438C2073.98 126.078 2074.2 127.477 2074.63 128.633C2075.09 129.773 2075.72 130.648 2076.53 131.258C2077.36 131.852 2078.34 132.148 2079.46 132.148C2080.84 132.148 2081.94 131.766 2082.77 131C2083.61 130.219 2084.15 129.195 2084.38 127.93L2084.41 127.719H2090.78V127.859C2090.67 129.688 2090.14 131.328 2089.19 132.781C2088.23 134.234 2086.92 135.391 2085.25 136.25C2083.59 137.094 2081.65 137.516 2079.41 137.516ZM2105.62 137.516C2103.07 137.516 2100.87 136.992 2099.01 135.945C2097.15 134.898 2095.71 133.398 2094.7 131.445C2093.68 129.492 2093.17 127.156 2093.17 124.438V124.391C2093.17 121.688 2093.69 119.367 2094.72 117.43C2095.75 115.477 2097.2 113.977 2099.05 112.93C2100.91 111.883 2103.09 111.359 2105.59 111.359C2108.11 111.359 2110.3 111.883 2112.16 112.93C2114.03 113.961 2115.48 115.453 2116.52 117.406C2117.55 119.344 2118.06 121.672 2118.06 124.391V124.438C2118.06 127.172 2117.55 129.516 2116.52 131.469C2115.5 133.422 2114.06 134.922 2112.2 135.969C2110.34 137 2108.15 137.516 2105.62 137.516ZM2105.64 132.148C2106.75 132.148 2107.71 131.852 2108.52 131.258C2109.35 130.648 2109.98 129.773 2110.42 128.633C2110.88 127.477 2111.1 126.078 2111.1 124.438V124.391C2111.1 122.766 2110.88 121.383 2110.42 120.242C2109.97 119.102 2109.33 118.234 2108.5 117.641C2107.67 117.031 2106.7 116.727 2105.59 116.727C2104.5 116.727 2103.54 117.031 2102.71 117.641C2101.9 118.234 2101.27 119.102 2100.81 120.242C2100.36 121.383 2100.13 122.766 2100.13 124.391V124.438C2100.13 126.078 2100.35 127.477 2100.79 128.633C2101.24 129.773 2101.88 130.648 2102.71 131.258C2103.54 131.852 2104.52 132.148 2105.64 132.148ZM2121.6 137V111.875H2128.45V116H2128.59C2129.24 114.562 2130.21 113.43 2131.49 112.602C2132.77 111.773 2134.36 111.359 2136.25 111.359C2139.02 111.359 2141.15 112.195 2142.65 113.867C2144.16 115.523 2144.92 117.828 2144.92 120.781V137H2138.08V122.188C2138.08 120.547 2137.69 119.281 2136.91 118.391C2136.14 117.484 2134.99 117.031 2133.46 117.031C2132.45 117.031 2131.56 117.266 2130.81 117.734C2130.06 118.188 2129.48 118.828 2129.05 119.656C2128.65 120.484 2128.45 121.453 2128.45 122.562V137H2121.6Z" fill="white"/>
<path d="M145.75 279.56L159.56 210.17C159.68 209.57 159.74 208.94 159.74 208.28C159.74 205.88 158.21 203.96 155.16 202.51C153.24 201.56 152.28 200.64 152.28 199.75C152.28 199.33 152.31 198.92 152.37 198.5V197.07C152.37 194.4 152.5 192.72 152.77 192.03C153.04 191.35 153.77 191 154.97 191H177.19C178.2 191 278.82 191.28 279.03 191.85C279.24 192.41 279.34 193.89 279.34 196.26C279.34 199.05 279.28 201.78 279.16 202.43C279.04 203.08 178.62 202.62 177.9 203.03C176.1 204.23 174.96 205.26 174.49 206.13C174.01 207 173.41 209.2 172.69 212.74L149.29 329.53L147.85 336.63C147.73 337.29 147.1 337.62 145.96 337.62H127.91C127.13 337.62 126.53 337.26 126.11 336.54C125.69 335.82 125.09 333.48 124.31 329.53L100.91 210.14C100.37 207.14 98.93 204.96 96.6 203.58C95.4 202.87 94.67 202.32 94.4 201.93C94.13 201.54 94 200.73 94 199.48C94 199.06 94.03 198.65 94.09 198.23C94.15 197.58 94.18 196.95 94.18 196.36C94.18 195.94 94.15 195.56 94.09 195.2V193.95C94.08 191.98 94.8 191 96.24 191H137.09C138.47 191 139.16 192.25 139.16 194.74C139.16 194.8 139.1 196.52 138.98 199.91C138.86 200.68 138.23 201.34 137.09 201.87C134.45 203.12 133.14 205.13 133.14 207.88C133.14 208.54 133.23 209.29 133.41 210.12L145.75 279.55V279.56Z" fill="black"/>
<path d="M324.19 258.99L160.14 257.75C158.95 257.75 157.98 256.78 157.98 255.59L170.24 197.07C170.24 195.88 171.21 194.91 172.4 194.91H272.51C304.48 194.91 330.39 220.82 330.39 252.79C330.39 256.21 327.61 258.99 324.19 258.99Z" stroke="black" stroke-width="7" stroke-miterlimit="10"/>
<path d="M321.48 226.59L285.45 226.68C283.28 226.68 281.53 224.91 281.53 222.74V202.69C281.53 200.52 283.29 198.75 285.47 198.75C285.96 198.75 286.45 198.84 286.9 199.02C297.72 203.21 298.92 203.06 313.51 218.1C313.63 218.23 313.75 218.36 313.86 218.51L315.31 220.47C317.23 223.07 324.73 226.59 321.49 226.58L321.48 226.59Z" fill="black" stroke="black" stroke-width="7" stroke-miterlimit="10"/>
<path d="M283.24 271.85C290.199 271.85 295.84 266.209 295.84 259.25C295.84 252.291 290.199 246.65 283.24 246.65C276.281 246.65 270.64 252.291 270.64 259.25C270.64 266.209 276.281 271.85 283.24 271.85Z" fill="black" stroke="black" stroke-width="7" stroke-miterlimit="10"/>
<path d="M325.29 256.28L162.29 255.03L168.65 236.96L325.29 237.21V256.28Z" fill="black" stroke="black" stroke-width="7" stroke-miterlimit="10"/>
<path d="M200.88 211.04H193.43C192.668 211.04 192.05 211.658 192.05 212.42V219.87C192.05 220.632 192.668 221.25 193.43 221.25H200.88C201.642 221.25 202.26 220.632 202.26 219.87V212.42C202.26 211.658 201.642 211.04 200.88 211.04Z" fill="black" stroke="black" stroke-width="7" stroke-miterlimit="10"/>
<path d="M224.07 211.04H216.62C215.858 211.04 215.24 211.658 215.24 212.42V219.87C215.24 220.632 215.858 221.25 216.62 221.25H224.07C224.832 221.25 225.45 220.632 225.45 219.87V212.42C225.45 211.658 224.832 211.04 224.07 211.04Z" fill="black" stroke="black" stroke-width="7" stroke-miterlimit="10"/>
<path d="M247.26 211.04H239.81C239.048 211.04 238.43 211.658 238.43 212.42V219.87C238.43 220.632 239.048 221.25 239.81 221.25H247.26C248.022 221.25 248.64 220.632 248.64 219.87V212.42C248.64 211.658 248.022 211.04 247.26 211.04Z" fill="black" stroke="black" stroke-width="7" stroke-miterlimit="10"/>
<path d="M194.27 332.89C194.39 333.98 194.44 334.85 194.43 335.48C194.42 336.12 194.25 336.59 193.92 336.91C193.59 337.23 193.06 337.43 192.31 337.5C191.56 337.58 190.54 337.61 189.24 337.61C188.32 337.61 187.58 337.59 187 337.54C186.42 337.49 185.98 337.41 185.66 337.29C185.35 337.17 185.13 336.99 185.01 336.74C184.89 336.5 184.82 336.16 184.79 335.74L183.53 323.91H165.97L161.13 335.46C160.96 335.88 160.77 336.24 160.55 336.53C160.33 336.82 160.02 337.04 159.61 337.19C159.2 337.34 158.65 337.45 157.97 337.51C157.28 337.57 156.42 337.6 155.39 337.6C154.28 337.6 153.42 337.55 152.81 337.46C152.2 337.37 151.79 337.15 151.58 336.8C151.38 336.45 151.35 335.96 151.51 335.32C151.67 334.68 151.97 333.83 152.43 332.77L175.12 280.55C175.36 280.03 175.6 279.62 175.84 279.3C176.08 278.98 176.42 278.74 176.87 278.57C177.32 278.4 177.92 278.3 178.68 278.25C179.44 278.2 180.43 278.18 181.66 278.18C183.08 278.18 184.21 278.2 185.04 278.25C185.87 278.3 186.52 278.4 186.97 278.57C187.43 278.74 187.73 278.99 187.87 279.32C188.01 279.65 188.11 280.11 188.16 280.68L194.27 332.86V332.89ZM180.07 289.72H180.03L169.59 314.74H182.74L180.07 289.72Z" fill="black"/>
<path d="M234.71 333.17C234.61 333.87 234.43 334.49 234.15 335.04C233.87 335.59 233.55 336.04 233.17 336.4C232.8 336.76 232.39 337.03 231.94 337.2C231.49 337.37 231.03 337.45 230.55 337.45H226.5C225.63 337.45 224.92 337.34 224.37 337.13C223.82 336.92 223.34 336.54 222.94 335.99C222.54 335.44 222.19 334.7 221.87 333.76C221.56 332.82 221.23 331.62 220.89 330.17L213.99 303.88C213.46 301.85 212.97 299.8 212.53 297.74C212.08 295.68 211.66 293.63 211.25 291.6H211.18C210.94 294 210.66 296.35 210.35 298.67C210.04 300.99 209.69 303.32 209.3 305.65L204.53 335.72C204.48 336.02 204.37 336.3 204.19 336.54C204.01 336.78 203.74 336.98 203.38 337.13C203.02 337.28 202.55 337.4 201.99 337.49C201.42 337.58 200.72 337.63 199.88 337.63C199.04 337.63 198.34 337.58 197.8 337.49C197.26 337.4 196.84 337.28 196.55 337.13C196.26 336.98 196.07 336.78 195.99 336.54C195.91 336.3 195.9 336.02 195.97 335.72L204.39 282.77C204.61 281.35 205.1 280.28 205.87 279.56C206.64 278.85 207.51 278.49 208.47 278.49H213.42C214.21 278.49 214.9 278.6 215.46 278.83C216.03 279.06 216.51 279.42 216.91 279.92C217.31 280.42 217.66 281.07 217.96 281.85C218.26 282.64 218.54 283.61 218.81 284.76L225.78 311.28C226.24 312.98 226.65 314.66 227.03 316.33C227.4 318 227.79 319.67 228.2 321.33H228.27C228.53 319.15 228.83 316.89 229.16 314.57C229.49 312.25 229.82 310 230.15 307.81L234.59 280.06C234.64 279.76 234.75 279.49 234.92 279.26C235.09 279.03 235.35 278.85 235.7 278.71C236.05 278.57 236.5 278.47 237.05 278.39C237.6 278.31 238.3 278.28 239.15 278.28C240 278.28 240.69 278.32 241.25 278.39C241.8 278.47 242.23 278.57 242.51 278.71C242.79 278.85 242.99 279.03 243.09 279.26C243.19 279.49 243.21 279.75 243.16 280.06L234.7 333.15L234.71 333.17Z" fill="black"/>
<path d="M266.58 329.3C266.58 329.51 266.56 329.85 266.53 330.32C266.49 330.79 266.43 331.33 266.35 331.93C266.27 332.54 266.16 333.16 266.02 333.8C265.89 334.44 265.73 335.02 265.55 335.55C265.37 336.08 265.16 336.51 264.92 336.85C264.68 337.18 264.4 337.35 264.09 337.35H242.66C242.27 337.35 241.92 337.28 241.59 337.15C241.26 337.02 241 336.79 240.8 336.47C240.59 336.15 240.46 335.76 240.38 335.29C240.31 334.82 240.32 334.25 240.42 333.58L248.95 280.08C248.97 279.78 249.08 279.5 249.28 279.26C249.48 279.02 249.77 278.82 250.17 278.67C250.57 278.52 251.07 278.41 251.69 278.33C252.3 278.25 253.08 278.22 254.02 278.22C254.96 278.22 255.69 278.26 256.3 278.33C256.9 278.41 257.37 278.52 257.71 278.67C258.05 278.82 258.27 279.02 258.38 279.26C258.49 279.5 258.52 279.78 258.47 280.08L250.95 327.48H265.69C266.03 327.48 266.26 327.65 266.39 327.98C266.52 328.31 266.59 328.75 266.59 329.3H266.58Z" fill="black"/>
<path d="M276.48 335.76C276.43 336.06 276.31 336.34 276.12 336.58C275.93 336.82 275.63 337.02 275.23 337.17C274.83 337.32 274.32 337.43 273.69 337.51C273.06 337.59 272.29 337.62 271.38 337.62C270.47 337.62 269.68 337.58 269.09 337.51C268.5 337.43 268.04 337.32 267.7 337.17C267.36 337.02 267.13 336.82 267.01 336.58C266.89 336.34 266.87 336.06 266.94 335.76L275.79 280.08C275.81 279.78 275.93 279.5 276.13 279.26C276.33 279.02 276.64 278.82 277.03 278.67C277.43 278.52 277.93 278.41 278.55 278.33C279.16 278.25 279.93 278.22 280.84 278.22C281.75 278.22 282.51 278.26 283.1 278.33C283.69 278.41 284.16 278.52 284.51 278.67C284.86 278.82 285.09 279.02 285.2 279.26C285.31 279.5 285.34 279.78 285.29 280.08L276.47 335.76H276.48Z" fill="black"/>
<path d="M320.97 333.17C320.87 333.87 320.69 334.49 320.41 335.04C320.13 335.59 319.81 336.04 319.43 336.4C319.06 336.76 318.65 337.03 318.2 337.2C317.75 337.37 317.29 337.45 316.81 337.45H312.76C311.89 337.45 311.18 337.34 310.63 337.13C310.08 336.92 309.6 336.54 309.2 335.99C308.8 335.44 308.45 334.7 308.13 333.76C307.82 332.82 307.49 331.62 307.15 330.17L300.25 303.88C299.72 301.85 299.23 299.8 298.79 297.74C298.34 295.68 297.92 293.63 297.51 291.6H297.44C297.2 294 296.92 296.35 296.61 298.67C296.3 300.99 295.95 303.32 295.56 305.65L290.79 335.72C290.74 336.02 290.63 336.3 290.45 336.54C290.27 336.78 290 336.98 289.64 337.13C289.28 337.28 288.81 337.4 288.25 337.49C287.68 337.58 286.98 337.63 286.14 337.63C285.3 337.63 284.6 337.58 284.06 337.49C283.52 337.4 283.1 337.28 282.81 337.13C282.52 336.98 282.33 336.78 282.25 336.54C282.17 336.3 282.16 336.02 282.23 335.72L290.65 282.77C290.87 281.35 291.36 280.28 292.13 279.56C292.9 278.85 293.77 278.49 294.73 278.49H299.68C300.47 278.49 301.16 278.6 301.72 278.83C302.29 279.06 302.77 279.42 303.17 279.92C303.57 280.42 303.92 281.07 304.22 281.85C304.52 282.64 304.8 283.61 305.07 284.76L312.04 311.28C312.5 312.98 312.91 314.66 313.29 316.33C313.66 318 314.05 319.67 314.46 321.33H314.53C314.79 319.15 315.09 316.89 315.42 314.57C315.74 312.25 316.08 310 316.41 307.81L320.85 280.06C320.9 279.76 321.01 279.49 321.18 279.26C321.35 279.03 321.61 278.85 321.96 278.71C322.31 278.57 322.76 278.47 323.32 278.39C323.87 278.31 324.57 278.28 325.42 278.28C326.27 278.28 326.96 278.32 327.52 278.39C328.07 278.47 328.5 278.57 328.78 278.71C329.06 278.85 329.26 279.03 329.36 279.26C329.46 279.49 329.48 279.75 329.43 280.06L320.97 333.15V333.17Z" fill="black"/>
<path d="M368.56 280.13C368.56 280.68 368.4 281.25 368.09 281.86C367.78 282.47 367.27 283.26 366.57 284.23L350.02 306.29L359.85 332.54C360.04 333.15 360.19 333.67 360.28 334.11C360.38 334.55 360.42 334.95 360.42 335.32C360.42 335.74 360.34 336.1 360.19 336.39C360.03 336.68 359.76 336.91 359.38 337.1C358.99 337.28 358.47 337.42 357.81 337.51C357.15 337.6 356.31 337.65 355.3 337.65C354.29 337.65 353.47 337.61 352.84 337.54C352.21 337.46 351.72 337.35 351.36 337.2C351 337.05 350.73 336.84 350.57 336.56C350.4 336.29 350.27 335.97 350.17 335.6L340.27 307.71L335.9 335.73C335.85 336.06 335.73 336.34 335.54 336.57C335.35 336.8 335.05 336.99 334.65 337.16C334.25 337.33 333.75 337.45 333.13 337.52C332.52 337.6 331.75 337.63 330.84 337.63C329.93 337.63 329.14 337.59 328.55 337.52C327.96 337.44 327.5 337.32 327.16 337.16C326.82 336.99 326.59 336.8 326.47 336.57C326.35 336.34 326.33 336.06 326.4 335.73L335.22 280.1C335.24 279.77 335.35 279.49 335.55 279.26C335.74 279.03 336.04 278.84 336.44 278.69C336.84 278.54 337.34 278.43 337.96 278.35C338.57 278.27 339.35 278.24 340.29 278.24C341.23 278.24 341.96 278.28 342.55 278.35C343.14 278.43 343.6 278.54 343.94 278.69C344.28 278.84 344.51 279.03 344.63 279.26C344.75 279.49 344.79 279.77 344.74 280.1L340.77 305.26L358.11 280.29C358.35 279.93 358.61 279.61 358.89 279.33C359.17 279.06 359.52 278.84 359.96 278.69C360.39 278.54 360.92 278.43 361.55 278.35C362.18 278.27 362.96 278.24 363.9 278.24C364.84 278.24 365.65 278.28 366.27 278.35C366.89 278.43 367.36 278.55 367.7 278.71C368.04 278.88 368.27 279.07 368.41 279.3C368.54 279.53 368.61 279.81 368.61 280.14L368.56 280.13Z" fill="black"/>
<path d="M458.75 279.56L472.56 210.17C472.68 209.57 472.74 208.94 472.74 208.28C472.74 205.88 471.21 203.96 468.16 202.51C466.24 201.56 465.28 200.64 465.28 199.75C465.28 199.33 465.31 198.92 465.37 198.5V197.07C465.37 194.4 465.5 192.72 465.77 192.03C466.04 191.35 466.77 191 467.97 191H490.19C491.2 191 591.82 191.28 592.03 191.85C592.24 192.41 592.34 193.89 592.34 196.26C592.34 199.05 592.28 201.78 592.16 202.43C592.04 203.08 491.62 202.62 490.9 203.03C489.1 204.23 487.96 205.26 487.49 206.13C487.01 207 486.41 209.2 485.69 212.74L462.29 329.53L460.85 336.63C460.73 337.29 460.1 337.62 458.96 337.62H440.91C440.13 337.62 439.53 337.26 439.11 336.54C438.69 335.82 438.09 333.48 437.31 329.53L413.91 210.14C413.37 207.14 411.93 204.96 409.6 203.58C408.4 202.87 407.67 202.32 407.4 201.93C407.13 201.54 407 200.73 407 199.48C407 199.06 407.03 198.65 407.09 198.23C407.15 197.58 407.18 196.95 407.18 196.36C407.18 195.94 407.15 195.56 407.09 195.2V193.95C407.08 191.98 407.8 191 409.24 191H450.09C451.47 191 452.16 192.25 452.16 194.74C452.16 194.8 452.1 196.52 451.98 199.91C451.86 200.68 451.23 201.34 450.09 201.87C447.45 203.12 446.14 205.13 446.14 207.88C446.14 208.54 446.23 209.29 446.41 210.12L458.75 279.55V279.56Z" fill="#0A2A5A"/>
<path d="M637.19 258.99L473.14 257.75C471.95 257.75 470.98 256.78 470.98 255.59L483.24 197.07C483.24 195.88 484.21 194.91 485.4 194.91H585.51C617.48 194.91 643.39 220.82 643.39 252.79C643.39 256.21 640.61 258.99 637.19 258.99Z" stroke="#0A2A5A" stroke-width="7" stroke-miterlimit="10"/>
<path d="M634.48 226.59L598.45 226.68C596.28 226.68 594.53 224.91 594.53 222.74V202.69C594.53 200.52 596.29 198.75 598.47 198.75C598.96 198.75 599.45 198.84 599.9 199.02C610.72 203.21 611.92 203.06 626.51 218.1C626.63 218.23 626.75 218.36 626.86 218.51L628.31 220.47C630.23 223.07 637.73 226.59 634.49 226.58L634.48 226.59Z" fill="#0A2A5A" stroke="#0A2A5A" stroke-width="7" stroke-miterlimit="10"/>
<path d="M596.24 271.85C603.199 271.85 608.84 266.209 608.84 259.25C608.84 252.291 603.199 246.65 596.24 246.65C589.281 246.65 583.64 252.291 583.64 259.25C583.64 266.209 589.281 271.85 596.24 271.85Z" fill="#0A2A5A" stroke="#0A2A5A" stroke-width="7" stroke-miterlimit="10"/>
<path d="M638.29 256.28L475.29 255.03L481.65 236.96L638.29 237.21V256.28Z" fill="#0A2A5A" stroke="#0A2A5A" stroke-width="7" stroke-miterlimit="10"/>
<path d="M513.88 211.04H506.43C505.668 211.04 505.05 211.658 505.05 212.42V219.87C505.05 220.632 505.668 221.25 506.43 221.25H513.88C514.642 221.25 515.26 220.632 515.26 219.87V212.42C515.26 211.658 514.642 211.04 513.88 211.04Z" fill="#0A2A5A" stroke="#0A2A5A" stroke-width="7" stroke-miterlimit="10"/>
<path d="M537.07 211.04H529.62C528.858 211.04 528.24 211.658 528.24 212.42V219.87C528.24 220.632 528.858 221.25 529.62 221.25H537.07C537.832 221.25 538.45 220.632 538.45 219.87V212.42C538.45 211.658 537.832 211.04 537.07 211.04Z" fill="#0A2A5A" stroke="#0A2A5A" stroke-width="7" stroke-miterlimit="10"/>
<path d="M560.26 211.04H552.81C552.048 211.04 551.43 211.658 551.43 212.42V219.87C551.43 220.632 552.048 221.25 552.81 221.25H560.26C561.022 221.25 561.64 220.632 561.64 219.87V212.42C561.64 211.658 561.022 211.04 560.26 211.04Z" fill="#0A2A5A" stroke="#0A2A5A" stroke-width="7" stroke-miterlimit="10"/>
<path d="M507.27 332.89C507.39 333.98 507.44 334.85 507.43 335.48C507.42 336.12 507.25 336.59 506.92 336.91C506.59 337.23 506.06 337.43 505.31 337.5C504.56 337.58 503.54 337.61 502.24 337.61C501.32 337.61 500.58 337.59 500 337.54C499.42 337.49 498.98 337.41 498.66 337.29C498.35 337.17 498.13 336.99 498.01 336.74C497.89 336.5 497.82 336.16 497.79 335.74L496.53 323.91H478.97L474.13 335.46C473.96 335.88 473.77 336.24 473.55 336.53C473.33 336.82 473.02 337.04 472.61 337.19C472.2 337.34 471.65 337.45 470.97 337.51C470.28 337.57 469.42 337.6 468.39 337.6C467.28 337.6 466.42 337.55 465.81 337.46C465.2 337.37 464.79 337.15 464.58 336.8C464.38 336.45 464.35 335.96 464.51 335.32C464.67 334.68 464.97 333.83 465.43 332.77L488.12 280.55C488.36 280.03 488.6 279.62 488.84 279.3C489.08 278.98 489.42 278.74 489.87 278.57C490.32 278.4 490.92 278.3 491.68 278.25C492.44 278.2 493.43 278.18 494.66 278.18C496.08 278.18 497.21 278.2 498.04 278.25C498.87 278.3 499.52 278.4 499.97 278.57C500.43 278.74 500.73 278.99 500.87 279.32C501.01 279.65 501.11 280.11 501.16 280.68L507.27 332.86V332.89ZM493.07 289.72H493.03L482.59 314.74H495.74L493.07 289.72Z" fill="#0A2A5A"/>
<path d="M547.71 333.17C547.61 333.87 547.43 334.49 547.15 335.04C546.87 335.59 546.55 336.04 546.17 336.4C545.8 336.76 545.39 337.03 544.94 337.2C544.49 337.37 544.03 337.45 543.55 337.45H539.5C538.63 337.45 537.92 337.34 537.37 337.13C536.82 336.92 536.34 336.54 535.94 335.99C535.54 335.44 535.19 334.7 534.87 333.76C534.56 332.82 534.23 331.62 533.89 330.17L526.99 303.88C526.46 301.85 525.97 299.8 525.53 297.74C525.08 295.68 524.66 293.63 524.25 291.6H524.18C523.94 294 523.66 296.35 523.35 298.67C523.04 300.99 522.69 303.32 522.3 305.65L517.53 335.72C517.48 336.02 517.37 336.3 517.19 336.54C517.01 336.78 516.74 336.98 516.38 337.13C516.02 337.28 515.55 337.4 514.99 337.49C514.42 337.58 513.72 337.63 512.88 337.63C512.04 337.63 511.34 337.58 510.8 337.49C510.26 337.4 509.84 337.28 509.55 337.13C509.26 336.98 509.07 336.78 508.99 336.54C508.91 336.3 508.9 336.02 508.97 335.72L517.39 282.77C517.61 281.35 518.1 280.28 518.87 279.56C519.64 278.85 520.51 278.49 521.47 278.49H526.42C527.21 278.49 527.9 278.6 528.46 278.83C529.03 279.06 529.51 279.42 529.91 279.92C530.31 280.42 530.66 281.07 530.96 281.85C531.26 282.64 531.54 283.61 531.81 284.76L538.78 311.28C539.24 312.98 539.65 314.66 540.03 316.33C540.4 318 540.79 319.67 541.2 321.33H541.27C541.53 319.15 541.83 316.89 542.16 314.57C542.49 312.25 542.82 310 543.15 307.81L547.59 280.06C547.64 279.76 547.75 279.49 547.92 279.26C548.09 279.03 548.35 278.85 548.7 278.71C549.05 278.57 549.5 278.47 550.05 278.39C550.6 278.31 551.3 278.28 552.15 278.28C553 278.28 553.69 278.32 554.25 278.39C554.8 278.47 555.23 278.57 555.51 278.71C555.79 278.85 555.99 279.03 556.09 279.26C556.19 279.49 556.21 279.75 556.16 280.06L547.7 333.15L547.71 333.17Z" fill="#0A2A5A"/>
<path d="M579.58 329.3C579.58 329.51 579.56 329.85 579.53 330.32C579.49 330.79 579.43 331.33 579.35 331.93C579.27 332.54 579.16 333.16 579.02 333.8C578.89 334.44 578.73 335.02 578.55 335.55C578.37 336.08 578.16 336.51 577.92 336.85C577.68 337.18 577.4 337.35 577.09 337.35H555.66C555.27 337.35 554.92 337.28 554.59 337.15C554.26 337.02 554 336.79 553.8 336.47C553.59 336.15 553.46 335.76 553.38 335.29C553.31 334.82 553.32 334.25 553.42 333.58L561.95 280.08C561.97 279.78 562.08 279.5 562.28 279.26C562.48 279.02 562.77 278.82 563.17 278.67C563.57 278.52 564.07 278.41 564.69 278.33C565.3 278.25 566.08 278.22 567.02 278.22C567.96 278.22 568.69 278.26 569.3 278.33C569.9 278.41 570.37 278.52 570.71 278.67C571.05 278.82 571.27 279.02 571.38 279.26C571.49 279.5 571.52 279.78 571.47 280.08L563.95 327.48H578.69C579.03 327.48 579.26 327.65 579.39 327.98C579.52 328.31 579.59 328.75 579.59 329.3H579.58Z" fill="#0A2A5A"/>
<path d="M589.48 335.76C589.43 336.06 589.31 336.34 589.12 336.58C588.93 336.82 588.63 337.02 588.23 337.17C587.83 337.32 587.32 337.43 586.69 337.51C586.06 337.59 585.29 337.62 584.38 337.62C583.47 337.62 582.68 337.58 582.09 337.51C581.5 337.43 581.04 337.32 580.7 337.17C580.36 337.02 580.13 336.82 580.01 336.58C579.89 336.34 579.87 336.06 579.94 335.76L588.79 280.08C588.81 279.78 588.93 279.5 589.13 279.26C589.33 279.02 589.64 278.82 590.03 278.67C590.43 278.52 590.93 278.41 591.55 278.33C592.16 278.25 592.93 278.22 593.84 278.22C594.75 278.22 595.51 278.26 596.1 278.33C596.69 278.41 597.16 278.52 597.51 278.67C597.86 278.82 598.09 279.02 598.2 279.26C598.31 279.5 598.34 279.78 598.29 280.08L589.47 335.76H589.48Z" fill="#0A2A5A"/>
<path d="M633.97 333.17C633.87 333.87 633.69 334.49 633.41 335.04C633.13 335.59 632.81 336.04 632.43 336.4C632.06 336.76 631.65 337.03 631.2 337.2C630.75 337.37 630.29 337.45 629.81 337.45H625.76C624.89 337.45 624.18 337.34 623.63 337.13C623.08 336.92 622.6 336.54 622.2 335.99C621.8 335.44 621.45 334.7 621.13 333.76C620.82 332.82 620.49 331.62 620.15 330.17L613.25 303.88C612.72 301.85 612.23 299.8 611.79 297.74C611.34 295.68 610.92 293.63 610.51 291.6H610.44C610.2 294 609.92 296.35 609.61 298.67C609.3 300.99 608.95 303.32 608.56 305.65L603.79 335.72C603.74 336.02 603.63 336.3 603.45 336.54C603.27 336.78 603 336.98 602.64 337.13C602.28 337.28 601.81 337.4 601.25 337.49C600.68 337.58 599.98 337.63 599.14 337.63C598.3 337.63 597.6 337.58 597.06 337.49C596.52 337.4 596.1 337.28 595.81 337.13C595.52 336.98 595.33 336.78 595.25 336.54C595.17 336.3 595.16 336.02 595.23 335.72L603.65 282.77C603.87 281.35 604.36 280.28 605.13 279.56C605.9 278.85 606.77 278.49 607.73 278.49H612.68C613.47 278.49 614.16 278.6 614.72 278.83C615.29 279.06 615.77 279.42 616.17 279.92C616.57 280.42 616.92 281.07 617.22 281.85C617.52 282.64 617.8 283.61 618.07 284.76L625.04 311.28C625.5 312.98 625.91 314.66 626.29 316.33C626.66 318 627.05 319.67 627.46 321.33H627.53C627.79 319.15 628.09 316.89 628.42 314.57C628.74 312.25 629.08 310 629.41 307.81L633.85 280.06C633.9 279.76 634.01 279.49 634.18 279.26C634.35 279.03 634.61 278.85 634.96 278.71C635.31 278.57 635.76 278.47 636.32 278.39C636.87 278.31 637.57 278.28 638.42 278.28C639.27 278.28 639.96 278.32 640.52 278.39C641.07 278.47 641.5 278.57 641.78 278.71C642.06 278.85 642.26 279.03 642.36 279.26C642.46 279.49 642.48 279.75 642.43 280.06L633.97 333.15V333.17Z" fill="#0A2A5A"/>
<path d="M681.56 280.13C681.56 280.68 681.4 281.25 681.09 281.86C680.78 282.47 680.27 283.26 679.57 284.23L663.02 306.29L672.85 332.54C673.04 333.15 673.19 333.67 673.28 334.11C673.38 334.55 673.42 334.95 673.42 335.32C673.42 335.74 673.34 336.1 673.19 336.39C673.03 336.68 672.76 336.91 672.38 337.1C671.99 337.28 671.47 337.42 670.81 337.51C670.15 337.6 669.31 337.65 668.3 337.65C667.29 337.65 666.47 337.61 665.84 337.54C665.21 337.46 664.72 337.35 664.36 337.2C664 337.05 663.73 336.84 663.57 336.56C663.4 336.29 663.27 335.97 663.17 335.6L653.27 307.71L648.9 335.73C648.85 336.06 648.73 336.34 648.54 336.57C648.35 336.8 648.05 336.99 647.65 337.16C647.25 337.33 646.75 337.45 646.13 337.52C645.52 337.6 644.75 337.63 643.84 337.63C642.93 337.63 642.14 337.59 641.55 337.52C640.96 337.44 640.5 337.32 640.16 337.16C639.82 336.99 639.59 336.8 639.47 336.57C639.35 336.34 639.33 336.06 639.4 335.73L648.22 280.1C648.24 279.77 648.35 279.49 648.55 279.26C648.74 279.03 649.04 278.84 649.44 278.69C649.84 278.54 650.34 278.43 650.96 278.35C651.57 278.27 652.35 278.24 653.29 278.24C654.23 278.24 654.96 278.28 655.55 278.35C656.14 278.43 656.6 278.54 656.94 278.69C657.28 278.84 657.51 279.03 657.63 279.26C657.75 279.49 657.79 279.77 657.74 280.1L653.77 305.26L671.11 280.29C671.35 279.93 671.61 279.61 671.89 279.33C672.17 279.06 672.52 278.84 672.96 278.69C673.39 278.54 673.92 278.43 674.55 278.35C675.18 278.27 675.96 278.24 676.9 278.24C677.84 278.24 678.65 278.28 679.27 278.35C679.89 278.43 680.36 278.55 680.7 278.71C681.04 278.88 681.27 279.07 681.41 279.3C681.54 279.53 681.61 279.81 681.61 280.14L681.56 280.13Z" fill="#0A2A5A"/>
<path d="M771.75 279.56L785.56 210.17C785.68 209.57 785.74 208.94 785.74 208.28C785.74 205.88 784.21 203.96 781.16 202.51C779.24 201.56 778.28 200.64 778.28 199.75C778.28 199.33 778.31 198.92 778.37 198.5V197.07C778.37 194.4 778.5 192.72 778.77 192.03C779.04 191.35 779.77 191 780.97 191H803.19C804.2 191 904.82 191.28 905.03 191.85C905.24 192.41 905.34 193.89 905.34 196.26C905.34 199.05 905.28 201.78 905.16 202.43C905.04 203.08 804.62 202.62 803.9 203.03C802.1 204.23 800.96 205.26 800.49 206.13C800.01 207 799.41 209.2 798.69 212.74L775.29 329.53L773.85 336.63C773.73 337.29 773.1 337.62 771.96 337.62H753.91C753.13 337.62 752.53 337.26 752.11 336.54C751.69 335.82 751.09 333.48 750.31 329.53L726.91 210.14C726.37 207.14 724.93 204.96 722.6 203.58C721.4 202.87 720.67 202.32 720.4 201.93C720.13 201.54 720 200.73 720 199.48C720 199.06 720.03 198.65 720.09 198.23C720.15 197.58 720.18 196.95 720.18 196.36C720.18 195.94 720.15 195.56 720.09 195.2V193.95C720.08 191.98 720.8 191 722.24 191H763.09C764.47 191 765.16 192.25 765.16 194.74C765.16 194.8 765.1 196.52 764.98 199.91C764.86 200.68 764.23 201.34 763.09 201.87C760.45 203.12 759.14 205.13 759.14 207.88C759.14 208.54 759.23 209.29 759.41 210.12L771.75 279.55V279.56Z" fill="white"/>
<path d="M950.19 258.99L784.14 257.75C782.95 257.75 781.98 256.78 781.98 255.59L797.24 197.07C797.24 195.88 798.21 194.91 799.4 194.91H898.51C930.48 194.91 956.39 220.82 956.39 252.79C956.39 256.21 953.61 258.99 950.19 258.99Z" stroke="white" stroke-width="7" stroke-miterlimit="10"/>
<path d="M947.48 226.59L911.45 226.68C909.28 226.68 907.53 224.91 907.53 222.74V202.69C907.53 200.52 909.29 198.75 911.47 198.75C911.96 198.75 912.45 198.84 912.9 199.02C923.72 203.21 924.92 203.06 939.51 218.1C939.63 218.23 939.75 218.36 939.86 218.51L941.31 220.47C943.23 223.07 950.73 226.59 947.49 226.58L947.48 226.59Z" fill="white" stroke="white" stroke-width="7" stroke-miterlimit="10"/>
<path d="M909.24 271.85C916.199 271.85 921.84 266.209 921.84 259.25C921.84 252.291 916.199 246.65 909.24 246.65C902.281 246.65 896.64 252.291 896.64 259.25C896.64 266.209 902.281 271.85 909.24 271.85Z" fill="white" stroke="white" stroke-width="7" stroke-miterlimit="10"/>
<path d="M951.29 256.28L788.29 255.03L794.65 236.96L951.29 237.21V256.28Z" fill="white" stroke="white" stroke-width="7" stroke-miterlimit="10"/>
<path d="M826.88 211.04H819.43C818.668 211.04 818.05 211.658 818.05 212.42V219.87C818.05 220.632 818.668 221.25 819.43 221.25H826.88C827.642 221.25 828.26 220.632 828.26 219.87V212.42C828.26 211.658 827.642 211.04 826.88 211.04Z" fill="white" stroke="white" stroke-width="7" stroke-miterlimit="10"/>
<path d="M850.07 211.04H842.62C841.858 211.04 841.24 211.658 841.24 212.42V219.87C841.24 220.632 841.858 221.25 842.62 221.25H850.07C850.832 221.25 851.45 220.632 851.45 219.87V212.42C851.45 211.658 850.832 211.04 850.07 211.04Z" fill="white" stroke="white" stroke-width="7" stroke-miterlimit="10"/>
<path d="M873.26 211.04H865.81C865.048 211.04 864.43 211.658 864.43 212.42V219.87C864.43 220.632 865.048 221.25 865.81 221.25H873.26C874.022 221.25 874.64 220.632 874.64 219.87V212.42C874.64 211.658 874.022 211.04 873.26 211.04Z" fill="white" stroke="white" stroke-width="7" stroke-miterlimit="10"/>
<path d="M820.27 332.89C820.39 333.98 820.44 334.85 820.43 335.48C820.42 336.12 820.25 336.59 819.92 336.91C819.59 337.23 819.06 337.43 818.31 337.5C817.56 337.58 816.54 337.61 815.24 337.61C814.32 337.61 813.58 337.59 813 337.54C812.42 337.49 811.98 337.41 811.66 337.29C811.35 337.17 811.13 336.99 811.01 336.74C810.89 336.5 810.82 336.16 810.79 335.74L809.53 323.91H791.97L787.13 335.46C786.96 335.88 786.77 336.24 786.55 336.53C786.33 336.82 786.02 337.04 785.61 337.19C785.2 337.34 784.65 337.45 783.97 337.51C783.28 337.57 782.42 337.6 781.39 337.6C780.28 337.6 779.42 337.55 778.81 337.46C778.2 337.37 777.79 337.15 777.58 336.8C777.38 336.45 777.35 335.96 777.51 335.32C777.67 334.68 777.97 333.83 778.43 332.77L801.12 280.55C801.36 280.03 801.6 279.62 801.84 279.3C802.08 278.98 802.42 278.74 802.87 278.57C803.32 278.4 803.92 278.3 804.68 278.25C805.44 278.2 806.43 278.18 807.66 278.18C809.08 278.18 810.21 278.2 811.04 278.25C811.87 278.3 812.52 278.4 812.97 278.57C813.43 278.74 813.73 278.99 813.87 279.32C814.01 279.65 814.11 280.11 814.16 280.68L820.27 332.86V332.89ZM806.07 289.72H806.03L795.59 314.74H808.74L806.07 289.72Z" fill="white"/>
<path d="M860.71 333.17C860.61 333.87 860.43 334.49 860.15 335.04C859.87 335.59 859.55 336.04 859.17 336.4C858.8 336.76 858.39 337.03 857.94 337.2C857.49 337.37 857.03 337.45 856.55 337.45H852.5C851.63 337.45 850.92 337.34 850.37 337.13C849.82 336.92 849.34 336.54 848.94 335.99C848.54 335.44 848.19 334.7 847.87 333.76C847.56 332.82 847.23 331.62 846.89 330.17L839.99 303.88C839.46 301.85 838.97 299.8 838.53 297.74C838.08 295.68 837.66 293.63 837.25 291.6H837.18C836.94 294 836.66 296.35 836.35 298.67C836.04 300.99 835.69 303.32 835.3 305.65L830.53 335.72C830.48 336.02 830.37 336.3 830.19 336.54C830.01 336.78 829.74 336.98 829.38 337.13C829.02 337.28 828.55 337.4 827.99 337.49C827.42 337.58 826.72 337.63 825.88 337.63C825.04 337.63 824.34 337.58 823.8 337.49C823.26 337.4 822.84 337.28 822.55 337.13C822.26 336.98 822.07 336.78 821.99 336.54C821.91 336.3 821.9 336.02 821.97 335.72L830.39 282.77C830.61 281.35 831.1 280.28 831.87 279.56C832.64 278.85 833.51 278.49 834.47 278.49H839.42C840.21 278.49 840.9 278.6 841.46 278.83C842.03 279.06 842.51 279.42 842.91 279.92C843.31 280.42 843.66 281.07 843.96 281.85C844.26 282.64 844.54 283.61 844.81 284.76L851.78 311.28C852.24 312.98 852.65 314.66 853.03 316.33C853.4 318 853.79 319.67 854.2 321.33H854.27C854.53 319.15 854.83 316.89 855.16 314.57C855.49 312.25 855.82 310 856.15 307.81L860.59 280.06C860.64 279.76 860.75 279.49 860.92 279.26C861.09 279.03 861.35 278.85 861.7 278.71C862.05 278.57 862.5 278.47 863.05 278.39C863.6 278.31 864.3 278.28 865.15 278.28C866 278.28 866.69 278.32 867.25 278.39C867.8 278.47 868.23 278.57 868.51 278.71C868.79 278.85 868.99 279.03 869.09 279.26C869.19 279.49 869.21 279.75 869.16 280.06L860.7 333.15L860.71 333.17Z" fill="white"/>
<path d="M892.58 329.3C892.58 329.51 892.56 329.85 892.53 330.32C892.49 330.79 892.43 331.33 892.35 331.93C892.27 332.54 892.16 333.16 892.02 333.8C891.89 334.44 891.73 335.02 891.55 335.55C891.37 336.08 891.16 336.51 890.92 336.85C890.68 337.18 890.4 337.35 890.09 337.35H868.66C868.27 337.35 867.92 337.28 867.59 337.15C867.26 337.02 867 336.79 866.8 336.47C866.59 336.15 866.46 335.76 866.38 335.29C866.31 334.82 866.32 334.25 866.42 333.58L874.95 280.08C874.97 279.78 875.08 279.5 875.28 279.26C875.48 279.02 875.77 278.82 876.17 278.67C876.57 278.52 877.07 278.41 877.69 278.33C878.3 278.25 879.08 278.22 880.02 278.22C880.96 278.22 881.69 278.26 882.3 278.33C882.9 278.41 883.37 278.52 883.71 278.67C884.05 278.82 884.27 279.02 884.38 279.26C884.49 279.5 884.52 279.78 884.47 280.08L876.95 327.48H891.69C892.03 327.48 892.26 327.65 892.39 327.98C892.52 328.31 892.59 328.75 892.59 329.3H892.58Z" fill="white"/>
<path d="M902.48 335.76C902.43 336.06 902.31 336.34 902.12 336.58C901.93 336.82 901.63 337.02 901.23 337.17C900.83 337.32 900.32 337.43 899.69 337.51C899.06 337.59 898.29 337.62 897.38 337.62C896.47 337.62 895.68 337.58 895.09 337.51C894.5 337.43 894.04 337.32 893.7 337.17C893.36 337.02 893.13 336.82 893.01 336.58C892.89 336.34 892.87 336.06 892.94 335.76L901.79 280.08C901.81 279.78 901.93 279.5 902.13 279.26C902.33 279.02 902.64 278.82 903.03 278.67C903.43 278.52 903.93 278.41 904.55 278.33C905.16 278.25 905.93 278.22 906.84 278.22C907.75 278.22 908.51 278.26 909.1 278.33C909.69 278.41 910.16 278.52 910.51 278.67C910.86 278.82 911.09 279.02 911.2 279.26C911.31 279.5 911.34 279.78 911.29 280.08L902.47 335.76H902.48Z" fill="white"/>
<path d="M946.97 333.17C946.87 333.87 946.69 334.49 946.41 335.04C946.13 335.59 945.81 336.04 945.43 336.4C945.06 336.76 944.65 337.03 944.2 337.2C943.75 337.37 943.29 337.45 942.81 337.45H938.76C937.89 337.45 937.18 337.34 936.63 337.13C936.08 336.92 935.6 336.54 935.2 335.99C934.8 335.44 934.45 334.7 934.13 333.76C933.82 332.82 933.49 331.62 933.15 330.17L926.25 303.88C925.72 301.85 925.23 299.8 924.79 297.74C924.34 295.68 923.92 293.63 923.51 291.6H923.44C923.2 294 922.92 296.35 922.61 298.67C922.3 300.99 921.95 303.32 921.56 305.65L916.79 335.72C916.74 336.02 916.63 336.3 916.45 336.54C916.27 336.78 916 336.98 915.64 337.13C915.28 337.28 914.81 337.4 914.25 337.49C913.68 337.58 912.98 337.63 912.14 337.63C911.3 337.63 910.6 337.58 910.06 337.49C909.52 337.4 909.1 337.28 908.81 337.13C908.52 336.98 908.33 336.78 908.25 336.54C908.17 336.3 908.16 336.02 908.23 335.72L916.65 282.77C916.87 281.35 917.36 280.28 918.13 279.56C918.9 278.85 919.77 278.49 920.73 278.49H925.68C926.47 278.49 927.16 278.6 927.72 278.83C928.29 279.06 928.77 279.42 929.17 279.92C929.57 280.42 929.92 281.07 930.22 281.85C930.52 282.64 930.8 283.61 931.07 284.76L938.04 311.28C938.5 312.98 938.91 314.66 939.29 316.33C939.66 318 940.05 319.67 940.46 321.33H940.53C940.79 319.15 941.09 316.89 941.42 314.57C941.74 312.25 942.08 310 942.41 307.81L946.85 280.06C946.9 279.76 947.01 279.49 947.18 279.26C947.35 279.03 947.61 278.85 947.96 278.71C948.31 278.57 948.76 278.47 949.32 278.39C949.87 278.31 950.57 278.28 951.42 278.28C952.27 278.28 952.96 278.32 953.52 278.39C954.07 278.47 954.5 278.57 954.78 278.71C955.06 278.85 955.26 279.03 955.36 279.26C955.46 279.49 955.48 279.75 955.43 280.06L946.97 333.15V333.17Z" fill="white"/>
<path d="M994.56 280.13C994.56 280.68 994.4 281.25 994.09 281.86C993.78 282.47 993.27 283.26 992.57 284.23L976.02 306.29L985.85 332.54C986.04 333.15 986.19 333.67 986.28 334.11C986.38 334.55 986.42 334.95 986.42 335.32C986.42 335.74 986.34 336.1 986.19 336.39C986.03 336.68 985.76 336.91 985.38 337.1C984.99 337.28 984.47 337.42 983.81 337.51C983.15 337.6 982.31 337.65 981.3 337.65C980.29 337.65 979.47 337.61 978.84 337.54C978.21 337.46 977.72 337.35 977.36 337.2C977 337.05 976.73 336.84 976.57 336.56C976.4 336.29 976.27 335.97 976.17 335.6L966.27 307.71L961.9 335.73C961.85 336.06 961.73 336.34 961.54 336.57C961.35 336.8 961.05 336.99 960.65 337.16C960.25 337.33 959.75 337.45 959.13 337.52C958.52 337.6 957.75 337.63 956.84 337.63C955.93 337.63 955.14 337.59 954.55 337.52C953.96 337.44 953.5 337.32 953.16 337.16C952.82 336.99 952.59 336.8 952.47 336.57C952.35 336.34 952.33 336.06 952.4 335.73L961.22 280.1C961.24 279.77 961.35 279.49 961.55 279.26C961.74 279.03 962.04 278.84 962.44 278.69C962.84 278.54 963.34 278.43 963.96 278.35C964.57 278.27 965.35 278.24 966.29 278.24C967.23 278.24 967.96 278.28 968.55 278.35C969.14 278.43 969.6 278.54 969.94 278.69C970.28 278.84 970.51 279.03 970.63 279.26C970.75 279.49 970.79 279.77 970.74 280.1L966.77 305.26L984.11 280.29C984.35 279.93 984.61 279.61 984.89 279.33C985.17 279.06 985.52 278.84 985.96 278.69C986.39 278.54 986.92 278.43 987.55 278.35C988.18 278.27 988.96 278.24 989.9 278.24C990.84 278.24 991.65 278.28 992.27 278.35C992.89 278.43 993.36 278.55 993.7 278.71C994.04 278.88 994.27 279.07 994.41 279.3C994.54 279.53 994.61 279.81 994.61 280.14L994.56 280.13Z" fill="white"/>
<path d="M1420.84 286.32C1420.62 286.73 1420.39 287.06 1420.15 287.31C1419.91 287.56 1419.56 287.76 1419.1 287.89C1418.64 288.02 1418.03 288.11 1417.28 288.14C1416.52 288.18 1415.53 288.19 1414.3 288.19C1412.88 288.19 1411.75 288.17 1410.9 288.14C1410.06 288.1 1409.42 288.02 1408.98 287.89C1408.54 287.76 1408.25 287.56 1408.1 287.29C1407.94 287.03 1407.84 286.67 1407.79 286.21L1402.09 243.97C1402.01 243.32 1401.99 242.8 1402.01 242.4C1402.03 242 1402.2 241.7 1402.52 241.5C1402.83 241.3 1403.32 241.16 1403.98 241.1C1404.64 241.04 1405.56 241.01 1406.74 241.01C1407.92 241.01 1408.84 241.03 1409.5 241.08C1410.16 241.13 1410.67 241.22 1411.02 241.35C1411.37 241.48 1411.59 241.67 1411.69 241.91C1411.79 242.15 1411.86 242.46 1411.91 242.85L1415.88 278.84H1415.95L1434.14 242.71C1434.31 242.37 1434.5 242.09 1434.72 241.86C1434.94 241.63 1435.24 241.46 1435.64 241.34C1436.04 241.22 1436.57 241.14 1437.23 241.09C1437.89 241.04 1438.77 241.02 1439.85 241.02C1441.01 241.02 1441.91 241.06 1442.56 241.13C1443.21 241.2 1443.64 241.37 1443.86 241.64C1444.08 241.91 1444.1 242.3 1443.93 242.81C1443.76 243.33 1443.45 244.02 1442.99 244.89L1420.84 286.34V286.32Z" fill="#0A2A5A"/>
<path d="M1471.8 284.44C1471.92 285.31 1471.97 285.99 1471.96 286.5C1471.95 287.01 1471.78 287.39 1471.45 287.64C1471.13 287.89 1470.59 288.05 1469.84 288.11C1469.09 288.17 1468.07 288.2 1466.77 288.2C1465.85 288.2 1465.11 288.18 1464.53 288.15C1463.95 288.12 1463.51 288.05 1463.19 287.95C1462.88 287.85 1462.66 287.71 1462.54 287.52C1462.42 287.33 1462.35 287.06 1462.32 286.73L1461.06 277.34H1443.5L1438.66 286.52C1438.49 286.86 1438.3 287.14 1438.08 287.37C1437.86 287.6 1437.55 287.77 1437.14 287.89C1436.73 288.01 1436.18 288.1 1435.5 288.14C1434.81 288.19 1433.95 288.21 1432.92 288.21C1431.81 288.21 1430.95 288.17 1430.34 288.1C1429.73 288.03 1429.32 287.85 1429.11 287.58C1428.91 287.3 1428.88 286.91 1429.04 286.41C1429.2 285.9 1429.5 285.23 1429.96 284.39L1452.65 242.89C1452.89 242.48 1453.13 242.15 1453.37 241.9C1453.61 241.65 1453.95 241.45 1454.4 241.32C1454.85 241.19 1455.45 241.1 1456.21 241.07C1456.97 241.03 1457.96 241.02 1459.19 241.02C1460.61 241.02 1461.74 241.04 1462.57 241.07C1463.4 241.11 1464.05 241.19 1464.5 241.32C1464.96 241.45 1465.26 241.65 1465.4 241.92C1465.54 242.19 1465.64 242.55 1465.69 243L1471.8 284.45V284.44ZM1457.6 250.15H1457.56L1447.12 270.02H1460.27L1457.6 250.15Z" fill="#0A2A5A"/>
<path d="M1512.23 284.66C1512.13 285.21 1511.95 285.71 1511.67 286.14C1511.39 286.57 1511.07 286.93 1510.69 287.22C1510.32 287.51 1509.91 287.72 1509.46 287.85C1509.01 287.98 1508.55 288.05 1508.07 288.05H1504.02C1503.15 288.05 1502.44 287.97 1501.89 287.8C1501.34 287.63 1500.86 287.33 1500.46 286.9C1500.06 286.47 1499.71 285.88 1499.39 285.13C1499.08 284.38 1498.75 283.43 1498.41 282.28L1491.51 261.4C1490.98 259.79 1490.49 258.16 1490.05 256.52C1489.6 254.88 1489.18 253.26 1488.77 251.64H1488.7C1488.46 253.54 1488.18 255.42 1487.87 257.26C1487.56 259.1 1487.21 260.95 1486.82 262.81L1482.05 286.69C1482 286.93 1481.89 287.15 1481.71 287.34C1481.53 287.53 1481.26 287.69 1480.9 287.81C1480.54 287.93 1480.07 288.03 1479.51 288.1C1478.94 288.17 1478.24 288.21 1477.4 288.21C1476.56 288.21 1475.86 288.17 1475.32 288.1C1474.78 288.03 1474.36 287.93 1474.07 287.81C1473.78 287.69 1473.59 287.53 1473.51 287.34C1473.43 287.15 1473.42 286.93 1473.49 286.69L1481.92 244.62C1482.14 243.49 1482.63 242.64 1483.4 242.07C1484.17 241.5 1485.04 241.22 1486 241.22H1490.95C1491.74 241.22 1492.43 241.31 1492.99 241.49C1493.56 241.67 1494.04 241.96 1494.44 242.36C1494.84 242.76 1495.19 243.27 1495.49 243.9C1495.79 244.53 1496.07 245.3 1496.34 246.21L1503.31 267.27C1503.77 268.62 1504.18 269.96 1504.56 271.28C1504.93 272.6 1505.32 273.93 1505.73 275.25H1505.8C1506.06 273.52 1506.36 271.73 1506.69 269.88C1507.01 268.04 1507.35 266.25 1507.68 264.51L1512.12 242.47C1512.17 242.23 1512.28 242.02 1512.45 241.84C1512.62 241.66 1512.88 241.51 1513.23 241.41C1513.58 241.3 1514.03 241.22 1514.59 241.16C1515.14 241.1 1515.84 241.07 1516.69 241.07C1517.54 241.07 1518.23 241.1 1518.79 241.16C1519.34 241.22 1519.77 241.3 1520.05 241.41C1520.33 241.52 1520.53 241.66 1520.63 241.84C1520.73 242.02 1520.75 242.23 1520.7 242.47L1512.24 284.64L1512.23 284.66Z" fill="#0A2A5A"/>
<path d="M1544.11 281.59C1544.11 281.76 1544.09 282.03 1544.06 282.4C1544.02 282.77 1543.96 283.2 1543.88 283.68C1543.8 284.16 1543.69 284.66 1543.55 285.16C1543.42 285.67 1543.26 286.13 1543.08 286.55C1542.9 286.97 1542.69 287.32 1542.45 287.58C1542.21 287.85 1541.93 287.98 1541.62 287.98H1520.19C1519.8 287.98 1519.45 287.93 1519.12 287.82C1518.8 287.71 1518.53 287.53 1518.33 287.28C1518.13 287.03 1517.99 286.71 1517.91 286.34C1517.83 285.97 1517.85 285.52 1517.95 284.98L1526.47 242.49C1526.49 242.25 1526.6 242.03 1526.8 241.84C1526.99 241.65 1527.29 241.49 1527.69 241.37C1528.09 241.25 1528.59 241.16 1529.21 241.1C1529.82 241.04 1530.6 241.01 1531.54 241.01C1532.48 241.01 1533.21 241.04 1533.82 241.1C1534.42 241.16 1534.89 241.25 1535.23 241.37C1535.57 241.49 1535.79 241.65 1535.9 241.84C1536.01 242.03 1536.04 242.25 1535.99 242.49L1528.47 280.14H1543.21C1543.55 280.14 1543.78 280.27 1543.91 280.54C1544.04 280.8 1544.11 281.15 1544.11 281.59Z" fill="#0A2A5A"/>
<path d="M1554.01 286.72C1553.96 286.96 1553.84 287.18 1553.65 287.37C1553.46 287.56 1553.16 287.72 1552.76 287.84C1552.36 287.96 1551.85 288.05 1551.22 288.11C1550.59 288.17 1549.82 288.2 1548.91 288.2C1548 288.2 1547.21 288.17 1546.62 288.11C1546.03 288.05 1545.57 287.96 1545.23 287.84C1544.89 287.72 1544.66 287.56 1544.54 287.37C1544.42 287.18 1544.4 286.96 1544.47 286.72L1553.32 242.49C1553.34 242.25 1553.46 242.03 1553.66 241.84C1553.86 241.65 1554.17 241.49 1554.56 241.37C1554.96 241.25 1555.46 241.16 1556.08 241.1C1556.7 241.04 1557.46 241.01 1558.37 241.01C1559.28 241.01 1560.04 241.04 1560.63 241.1C1561.22 241.16 1561.69 241.25 1562.04 241.37C1562.39 241.49 1562.62 241.65 1562.73 241.84C1562.84 242.03 1562.87 242.25 1562.82 242.49L1554 286.72H1554.01Z" fill="#0A2A5A"/>
<path d="M1598.49 284.66C1598.39 285.21 1598.21 285.71 1597.93 286.14C1597.65 286.57 1597.33 286.93 1596.95 287.22C1596.58 287.51 1596.17 287.72 1595.72 287.85C1595.27 287.98 1594.81 288.05 1594.33 288.05H1590.28C1589.41 288.05 1588.7 287.97 1588.15 287.8C1587.6 287.63 1587.12 287.33 1586.72 286.9C1586.32 286.47 1585.97 285.88 1585.65 285.13C1585.34 284.38 1585.01 283.43 1584.67 282.28L1577.77 261.4C1577.24 259.79 1576.75 258.16 1576.31 256.52C1575.86 254.88 1575.44 253.26 1575.03 251.64H1574.96C1574.72 253.54 1574.44 255.42 1574.13 257.26C1573.82 259.1 1573.47 260.95 1573.08 262.81L1568.31 286.69C1568.26 286.93 1568.15 287.15 1567.97 287.34C1567.79 287.53 1567.52 287.69 1567.16 287.81C1566.8 287.93 1566.33 288.03 1565.77 288.1C1565.2 288.17 1564.5 288.21 1563.66 288.21C1562.82 288.21 1562.12 288.17 1561.58 288.1C1561.04 288.03 1560.62 287.93 1560.33 287.81C1560.04 287.69 1559.85 287.53 1559.77 287.34C1559.69 287.15 1559.68 286.93 1559.75 286.69L1568.17 244.63C1568.39 243.5 1568.88 242.65 1569.65 242.08C1570.42 241.51 1571.29 241.23 1572.25 241.23H1577.2C1577.99 241.23 1578.68 241.32 1579.24 241.5C1579.81 241.68 1580.29 241.97 1580.69 242.37C1581.09 242.77 1581.44 243.28 1581.74 243.91C1582.04 244.54 1582.32 245.31 1582.59 246.22L1589.56 267.28C1590.02 268.63 1590.43 269.97 1590.81 271.29C1591.18 272.61 1591.57 273.94 1591.98 275.26H1592.05C1592.31 273.53 1592.61 271.74 1592.94 269.89C1593.26 268.05 1593.6 266.26 1593.93 264.52L1598.37 242.48C1598.42 242.24 1598.53 242.03 1598.7 241.85C1598.87 241.67 1599.13 241.52 1599.48 241.42C1599.83 241.31 1600.28 241.23 1600.84 241.17C1601.39 241.11 1602.09 241.08 1602.94 241.08C1603.79 241.08 1604.48 241.11 1605.04 241.17C1605.59 241.23 1606.02 241.31 1606.3 241.42C1606.58 241.53 1606.78 241.67 1606.88 241.85C1606.98 242.03 1607 242.24 1606.95 242.48L1598.49 284.65V284.66Z" fill="#0A2A5A"/>
<path d="M1646.09 242.53C1646.09 242.96 1645.93 243.42 1645.62 243.9C1645.31 244.38 1644.8 245.01 1644.1 245.78L1627.55 263.3L1637.38 284.15C1637.57 284.63 1637.72 285.05 1637.81 285.4C1637.91 285.75 1637.95 286.07 1637.95 286.36C1637.95 286.7 1637.87 286.98 1637.72 287.21C1637.56 287.44 1637.29 287.63 1636.91 287.77C1636.52 287.91 1636 288.02 1635.34 288.09C1634.68 288.16 1633.84 288.2 1632.83 288.2C1631.82 288.2 1631 288.17 1630.37 288.11C1629.74 288.05 1629.25 287.96 1628.89 287.84C1628.53 287.72 1628.26 287.55 1628.1 287.33C1627.93 287.11 1627.8 286.86 1627.7 286.57L1617.8 264.42L1613.43 286.68C1613.38 286.94 1613.26 287.17 1613.07 287.35C1612.88 287.53 1612.58 287.69 1612.18 287.82C1611.78 287.95 1611.28 288.05 1610.66 288.11C1610.05 288.17 1609.28 288.2 1608.37 288.2C1607.46 288.2 1606.67 288.17 1606.08 288.11C1605.49 288.05 1605.03 287.95 1604.69 287.82C1604.35 287.69 1604.12 287.53 1604 287.35C1603.88 287.17 1603.86 286.95 1603.93 286.68L1612.74 242.49C1612.76 242.23 1612.87 242 1613.07 241.82C1613.26 241.64 1613.56 241.49 1613.96 241.37C1614.36 241.25 1614.86 241.16 1615.48 241.1C1616.09 241.04 1616.87 241.01 1617.81 241.01C1618.75 241.01 1619.48 241.04 1620.07 241.1C1620.66 241.16 1621.12 241.25 1621.46 241.37C1621.8 241.49 1622.03 241.64 1622.15 241.82C1622.27 242 1622.31 242.22 1622.26 242.49L1618.29 262.47L1635.61 242.63C1635.85 242.34 1636.11 242.09 1636.39 241.87C1636.67 241.65 1637.02 241.48 1637.46 241.36C1637.89 241.24 1638.42 241.15 1639.05 241.09C1639.68 241.03 1640.46 241 1641.4 241C1642.34 241 1643.15 241.03 1643.77 241.09C1644.39 241.15 1644.86 241.25 1645.2 241.38C1645.54 241.51 1645.77 241.67 1645.91 241.85C1646.04 242.03 1646.11 242.25 1646.11 242.52L1646.09 242.53Z" fill="#0A2A5A"/>
<path d="M1138.84 286.32C1138.62 286.73 1138.39 287.06 1138.15 287.31C1137.91 287.56 1137.56 287.76 1137.1 287.89C1136.64 288.02 1136.03 288.11 1135.28 288.14C1134.52 288.18 1133.53 288.19 1132.3 288.19C1130.88 288.19 1129.75 288.17 1128.9 288.14C1128.06 288.1 1127.42 288.02 1126.98 287.89C1126.54 287.76 1126.25 287.56 1126.1 287.29C1125.94 287.03 1125.84 286.67 1125.79 286.21L1120.09 243.97C1120.01 243.32 1119.99 242.8 1120.01 242.4C1120.03 242 1120.2 241.7 1120.52 241.5C1120.83 241.3 1121.32 241.16 1121.98 241.1C1122.64 241.04 1123.56 241.01 1124.74 241.01C1125.92 241.01 1126.84 241.03 1127.5 241.08C1128.16 241.13 1128.67 241.22 1129.02 241.35C1129.37 241.48 1129.59 241.67 1129.69 241.91C1129.79 242.15 1129.86 242.46 1129.91 242.85L1133.88 278.84H1133.95L1152.14 242.71C1152.31 242.37 1152.5 242.09 1152.72 241.86C1152.94 241.63 1153.24 241.46 1153.64 241.34C1154.04 241.22 1154.57 241.14 1155.23 241.09C1155.89 241.04 1156.77 241.02 1157.85 241.02C1159.01 241.02 1159.91 241.06 1160.56 241.13C1161.21 241.2 1161.64 241.37 1161.86 241.64C1162.08 241.91 1162.1 242.3 1161.93 242.81C1161.76 243.33 1161.45 244.02 1160.99 244.89L1138.84 286.34V286.32Z" fill="black"/>
<path d="M1189.8 284.44C1189.92 285.31 1189.97 285.99 1189.96 286.5C1189.95 287.01 1189.78 287.39 1189.45 287.64C1189.13 287.89 1188.59 288.05 1187.84 288.11C1187.09 288.17 1186.07 288.2 1184.77 288.2C1183.85 288.2 1183.11 288.18 1182.53 288.15C1181.95 288.12 1181.51 288.05 1181.19 287.95C1180.88 287.85 1180.66 287.71 1180.54 287.52C1180.42 287.33 1180.35 287.06 1180.32 286.73L1179.06 277.34H1161.5L1156.66 286.52C1156.49 286.86 1156.3 287.14 1156.08 287.37C1155.86 287.6 1155.55 287.77 1155.14 287.89C1154.73 288.01 1154.18 288.1 1153.5 288.14C1152.81 288.19 1151.95 288.21 1150.92 288.21C1149.81 288.21 1148.95 288.17 1148.34 288.1C1147.73 288.03 1147.32 287.85 1147.11 287.58C1146.91 287.3 1146.88 286.91 1147.04 286.41C1147.2 285.9 1147.5 285.23 1147.96 284.39L1170.65 242.89C1170.89 242.48 1171.13 242.15 1171.37 241.9C1171.61 241.65 1171.95 241.45 1172.4 241.32C1172.85 241.19 1173.45 241.1 1174.21 241.07C1174.97 241.03 1175.96 241.02 1177.19 241.02C1178.61 241.02 1179.74 241.04 1180.57 241.07C1181.4 241.11 1182.05 241.19 1182.5 241.32C1182.96 241.45 1183.26 241.65 1183.4 241.92C1183.54 242.19 1183.64 242.55 1183.69 243L1189.8 284.45V284.44ZM1175.6 250.15H1175.56L1165.12 270.02H1178.27L1175.6 250.15Z" fill="black"/>
<path d="M1230.23 284.66C1230.13 285.21 1229.95 285.71 1229.67 286.14C1229.39 286.57 1229.07 286.93 1228.69 287.22C1228.32 287.51 1227.91 287.72 1227.46 287.85C1227.01 287.98 1226.55 288.05 1226.07 288.05H1222.02C1221.15 288.05 1220.44 287.97 1219.89 287.8C1219.34 287.63 1218.86 287.33 1218.46 286.9C1218.06 286.47 1217.71 285.88 1217.39 285.13C1217.08 284.38 1216.75 283.43 1216.41 282.28L1209.51 261.4C1208.98 259.79 1208.49 258.16 1208.05 256.52C1207.6 254.88 1207.18 253.26 1206.77 251.64H1206.7C1206.46 253.54 1206.18 255.42 1205.87 257.26C1205.56 259.1 1205.21 260.95 1204.82 262.81L1200.05 286.69C1200 286.93 1199.89 287.15 1199.71 287.34C1199.53 287.53 1199.26 287.69 1198.9 287.81C1198.54 287.93 1198.07 288.03 1197.51 288.1C1196.94 288.17 1196.24 288.21 1195.4 288.21C1194.56 288.21 1193.86 288.17 1193.32 288.1C1192.78 288.03 1192.36 287.93 1192.07 287.81C1191.78 287.69 1191.59 287.53 1191.51 287.34C1191.43 287.15 1191.42 286.93 1191.49 286.69L1199.92 244.62C1200.14 243.49 1200.63 242.64 1201.4 242.07C1202.17 241.5 1203.04 241.22 1204 241.22H1208.95C1209.74 241.22 1210.43 241.31 1210.99 241.49C1211.56 241.67 1212.04 241.96 1212.44 242.36C1212.84 242.76 1213.19 243.27 1213.49 243.9C1213.79 244.53 1214.07 245.3 1214.34 246.21L1221.31 267.27C1221.77 268.62 1222.18 269.96 1222.56 271.28C1222.93 272.6 1223.32 273.93 1223.73 275.25H1223.8C1224.06 273.52 1224.36 271.73 1224.69 269.88C1225.01 268.04 1225.35 266.25 1225.68 264.51L1230.12 242.47C1230.17 242.23 1230.28 242.02 1230.45 241.84C1230.62 241.66 1230.88 241.51 1231.23 241.41C1231.58 241.3 1232.03 241.22 1232.59 241.16C1233.14 241.1 1233.84 241.07 1234.69 241.07C1235.54 241.07 1236.23 241.1 1236.79 241.16C1237.34 241.22 1237.77 241.3 1238.05 241.41C1238.33 241.52 1238.53 241.66 1238.63 241.84C1238.73 242.02 1238.75 242.23 1238.7 242.47L1230.24 284.64L1230.23 284.66Z" fill="black"/>
<path d="M1262.11 281.59C1262.11 281.76 1262.09 282.03 1262.06 282.4C1262.02 282.77 1261.96 283.2 1261.88 283.68C1261.8 284.16 1261.69 284.66 1261.55 285.16C1261.42 285.67 1261.26 286.13 1261.08 286.55C1260.9 286.97 1260.69 287.32 1260.45 287.58C1260.21 287.85 1259.93 287.98 1259.62 287.98H1238.19C1237.8 287.98 1237.45 287.93 1237.12 287.82C1236.8 287.71 1236.53 287.53 1236.33 287.28C1236.13 287.03 1235.99 286.71 1235.91 286.34C1235.83 285.97 1235.85 285.52 1235.95 284.98L1244.47 242.49C1244.49 242.25 1244.6 242.03 1244.8 241.84C1244.99 241.65 1245.29 241.49 1245.69 241.37C1246.09 241.25 1246.59 241.16 1247.21 241.1C1247.82 241.04 1248.6 241.01 1249.54 241.01C1250.48 241.01 1251.21 241.04 1251.82 241.1C1252.42 241.16 1252.89 241.25 1253.23 241.37C1253.57 241.49 1253.79 241.65 1253.9 241.84C1254.01 242.03 1254.04 242.25 1253.99 242.49L1246.47 280.14H1261.21C1261.55 280.14 1261.78 280.27 1261.91 280.54C1262.04 280.8 1262.11 281.15 1262.11 281.59Z" fill="black"/>
<path d="M1272.01 286.72C1271.96 286.96 1271.84 287.18 1271.65 287.37C1271.46 287.56 1271.16 287.72 1270.76 287.84C1270.36 287.96 1269.85 288.05 1269.22 288.11C1268.59 288.17 1267.82 288.2 1266.91 288.2C1266 288.2 1265.21 288.17 1264.62 288.11C1264.03 288.05 1263.57 287.96 1263.23 287.84C1262.89 287.72 1262.66 287.56 1262.54 287.37C1262.42 287.18 1262.4 286.96 1262.47 286.72L1271.32 242.49C1271.34 242.25 1271.46 242.03 1271.66 241.84C1271.86 241.65 1272.17 241.49 1272.56 241.37C1272.96 241.25 1273.46 241.16 1274.08 241.1C1274.7 241.04 1275.46 241.01 1276.37 241.01C1277.28 241.01 1278.04 241.04 1278.63 241.1C1279.22 241.16 1279.69 241.25 1280.04 241.37C1280.39 241.49 1280.62 241.65 1280.73 241.84C1280.84 242.03 1280.87 242.25 1280.82 242.49L1272 286.72H1272.01Z" fill="black"/>
<path d="M1316.49 284.66C1316.39 285.21 1316.21 285.71 1315.93 286.14C1315.65 286.57 1315.33 286.93 1314.95 287.22C1314.58 287.51 1314.17 287.72 1313.72 287.85C1313.27 287.98 1312.81 288.05 1312.33 288.05H1308.28C1307.41 288.05 1306.7 287.97 1306.15 287.8C1305.6 287.63 1305.12 287.33 1304.72 286.9C1304.32 286.47 1303.97 285.88 1303.65 285.13C1303.34 284.38 1303.01 283.43 1302.67 282.28L1295.77 261.4C1295.24 259.79 1294.75 258.16 1294.31 256.52C1293.86 254.88 1293.44 253.26 1293.03 251.64H1292.96C1292.72 253.54 1292.44 255.42 1292.13 257.26C1291.82 259.1 1291.47 260.95 1291.08 262.81L1286.31 286.69C1286.26 286.93 1286.15 287.15 1285.97 287.34C1285.79 287.53 1285.52 287.69 1285.16 287.81C1284.8 287.93 1284.33 288.03 1283.77 288.1C1283.2 288.17 1282.5 288.21 1281.66 288.21C1280.82 288.21 1280.12 288.17 1279.58 288.1C1279.04 288.03 1278.62 287.93 1278.33 287.81C1278.04 287.69 1277.85 287.53 1277.77 287.34C1277.69 287.15 1277.68 286.93 1277.75 286.69L1286.17 244.63C1286.39 243.5 1286.88 242.65 1287.65 242.08C1288.42 241.51 1289.29 241.23 1290.25 241.23H1295.2C1295.99 241.23 1296.68 241.32 1297.24 241.5C1297.81 241.68 1298.29 241.97 1298.69 242.37C1299.09 242.77 1299.44 243.28 1299.74 243.91C1300.04 244.54 1300.32 245.31 1300.59 246.22L1307.56 267.28C1308.02 268.63 1308.43 269.97 1308.81 271.29C1309.18 272.61 1309.57 273.94 1309.98 275.26H1310.05C1310.31 273.53 1310.61 271.74 1310.94 269.89C1311.26 268.05 1311.6 266.26 1311.93 264.52L1316.37 242.48C1316.42 242.24 1316.53 242.03 1316.7 241.85C1316.87 241.67 1317.13 241.52 1317.48 241.42C1317.83 241.31 1318.28 241.23 1318.84 241.17C1319.39 241.11 1320.09 241.08 1320.94 241.08C1321.79 241.08 1322.48 241.11 1323.04 241.17C1323.59 241.23 1324.02 241.31 1324.3 241.42C1324.58 241.53 1324.78 241.67 1324.88 241.85C1324.98 242.03 1325 242.24 1324.95 242.48L1316.49 284.65V284.66Z" fill="black"/>
<path d="M1364.09 242.53C1364.09 242.96 1363.93 243.42 1363.62 243.9C1363.31 244.38 1362.8 245.01 1362.1 245.78L1345.55 263.3L1355.38 284.15C1355.57 284.63 1355.72 285.05 1355.81 285.4C1355.91 285.75 1355.95 286.07 1355.95 286.36C1355.95 286.7 1355.87 286.98 1355.72 287.21C1355.56 287.44 1355.29 287.63 1354.91 287.77C1354.52 287.91 1354 288.02 1353.34 288.09C1352.68 288.16 1351.84 288.2 1350.83 288.2C1349.82 288.2 1349 288.17 1348.37 288.11C1347.74 288.05 1347.25 287.96 1346.89 287.84C1346.53 287.72 1346.26 287.55 1346.1 287.33C1345.93 287.11 1345.8 286.86 1345.7 286.57L1335.8 264.42L1331.43 286.68C1331.38 286.94 1331.26 287.17 1331.07 287.35C1330.88 287.53 1330.58 287.69 1330.18 287.82C1329.78 287.95 1329.28 288.05 1328.66 288.11C1328.05 288.17 1327.28 288.2 1326.37 288.2C1325.46 288.2 1324.67 288.17 1324.08 288.11C1323.49 288.05 1323.03 287.95 1322.69 287.82C1322.35 287.69 1322.12 287.53 1322 287.35C1321.88 287.17 1321.86 286.95 1321.93 286.68L1330.74 242.49C1330.76 242.23 1330.87 242 1331.07 241.82C1331.26 241.64 1331.56 241.49 1331.96 241.37C1332.36 241.25 1332.86 241.16 1333.48 241.1C1334.09 241.04 1334.87 241.01 1335.81 241.01C1336.75 241.01 1337.48 241.04 1338.07 241.1C1338.66 241.16 1339.12 241.25 1339.46 241.37C1339.8 241.49 1340.03 241.64 1340.15 241.82C1340.27 242 1340.31 242.22 1340.26 242.49L1336.29 262.47L1353.61 242.63C1353.85 242.34 1354.11 242.09 1354.39 241.87C1354.67 241.65 1355.02 241.48 1355.46 241.36C1355.89 241.24 1356.42 241.15 1357.05 241.09C1357.68 241.03 1358.46 241 1359.4 241C1360.34 241 1361.15 241.03 1361.77 241.09C1362.39 241.15 1362.86 241.25 1363.2 241.38C1363.54 241.51 1363.77 241.67 1363.91 241.85C1364.04 242.03 1364.11 242.25 1364.11 242.52L1364.09 242.53Z" fill="black"/>
<path d="M1702.84 286.32C1702.62 286.73 1702.39 287.06 1702.15 287.31C1701.91 287.56 1701.56 287.76 1701.1 287.89C1700.64 288.02 1700.03 288.11 1699.28 288.14C1698.52 288.18 1697.53 288.19 1696.3 288.19C1694.88 288.19 1693.75 288.17 1692.9 288.14C1692.06 288.1 1691.42 288.02 1690.98 287.89C1690.54 287.76 1690.25 287.56 1690.1 287.29C1689.94 287.03 1689.84 286.67 1689.79 286.21L1684.09 243.97C1684.01 243.32 1683.99 242.8 1684.01 242.4C1684.03 242 1684.2 241.7 1684.52 241.5C1684.83 241.3 1685.32 241.16 1685.98 241.1C1686.64 241.04 1687.56 241.01 1688.74 241.01C1689.92 241.01 1690.84 241.03 1691.5 241.08C1692.16 241.13 1692.67 241.22 1693.02 241.35C1693.37 241.48 1693.59 241.67 1693.69 241.91C1693.79 242.15 1693.86 242.46 1693.91 242.85L1697.88 278.84H1697.95L1716.14 242.71C1716.31 242.37 1716.5 242.09 1716.72 241.86C1716.94 241.63 1717.24 241.46 1717.64 241.34C1718.04 241.22 1718.57 241.14 1719.23 241.09C1719.89 241.04 1720.77 241.02 1721.85 241.02C1723.01 241.02 1723.91 241.06 1724.56 241.13C1725.21 241.2 1725.64 241.37 1725.86 241.64C1726.08 241.91 1726.1 242.3 1725.93 242.81C1725.76 243.33 1725.45 244.02 1724.99 244.89L1702.84 286.34V286.32Z" fill="white"/>
<path d="M1753.8 284.44C1753.92 285.31 1753.97 285.99 1753.96 286.5C1753.95 287.01 1753.78 287.39 1753.45 287.64C1753.13 287.89 1752.59 288.05 1751.84 288.11C1751.09 288.17 1750.07 288.2 1748.77 288.2C1747.85 288.2 1747.11 288.18 1746.53 288.15C1745.95 288.12 1745.51 288.05 1745.19 287.95C1744.88 287.85 1744.66 287.71 1744.54 287.52C1744.42 287.33 1744.35 287.06 1744.32 286.73L1743.06 277.34H1725.5L1720.66 286.52C1720.49 286.86 1720.3 287.14 1720.08 287.37C1719.86 287.6 1719.55 287.77 1719.14 287.89C1718.73 288.01 1718.18 288.1 1717.5 288.14C1716.81 288.19 1715.95 288.21 1714.92 288.21C1713.81 288.21 1712.95 288.17 1712.34 288.1C1711.73 288.03 1711.32 287.85 1711.11 287.58C1710.91 287.3 1710.88 286.91 1711.04 286.41C1711.2 285.9 1711.5 285.23 1711.96 284.39L1734.65 242.89C1734.89 242.48 1735.13 242.15 1735.37 241.9C1735.61 241.65 1735.95 241.45 1736.4 241.32C1736.85 241.19 1737.45 241.1 1738.21 241.07C1738.97 241.03 1739.96 241.02 1741.19 241.02C1742.61 241.02 1743.74 241.04 1744.57 241.07C1745.4 241.11 1746.05 241.19 1746.5 241.32C1746.96 241.45 1747.26 241.65 1747.4 241.92C1747.54 242.19 1747.64 242.55 1747.69 243L1753.8 284.45V284.44ZM1739.6 250.15H1739.56L1729.12 270.02H1742.27L1739.6 250.15Z" fill="white"/>
<path d="M1794.23 284.66C1794.13 285.21 1793.95 285.71 1793.67 286.14C1793.39 286.57 1793.07 286.93 1792.69 287.22C1792.32 287.51 1791.91 287.72 1791.46 287.85C1791.01 287.98 1790.55 288.05 1790.07 288.05H1786.02C1785.15 288.05 1784.44 287.97 1783.89 287.8C1783.34 287.63 1782.86 287.33 1782.46 286.9C1782.06 286.47 1781.71 285.88 1781.39 285.13C1781.08 284.38 1780.75 283.43 1780.41 282.28L1773.51 261.4C1772.98 259.79 1772.49 258.16 1772.05 256.52C1771.6 254.88 1771.18 253.26 1770.77 251.64H1770.7C1770.46 253.54 1770.18 255.42 1769.87 257.26C1769.56 259.1 1769.21 260.95 1768.82 262.81L1764.05 286.69C1764 286.93 1763.89 287.15 1763.71 287.34C1763.53 287.53 1763.26 287.69 1762.9 287.81C1762.54 287.93 1762.07 288.03 1761.51 288.1C1760.94 288.17 1760.24 288.21 1759.4 288.21C1758.56 288.21 1757.86 288.17 1757.32 288.1C1756.78 288.03 1756.36 287.93 1756.07 287.81C1755.78 287.69 1755.59 287.53 1755.51 287.34C1755.43 287.15 1755.42 286.93 1755.49 286.69L1763.92 244.62C1764.14 243.49 1764.63 242.64 1765.4 242.07C1766.17 241.5 1767.04 241.22 1768 241.22H1772.95C1773.74 241.22 1774.43 241.31 1774.99 241.49C1775.56 241.67 1776.04 241.96 1776.44 242.36C1776.84 242.76 1777.19 243.27 1777.49 243.9C1777.79 244.53 1778.07 245.3 1778.34 246.21L1785.31 267.27C1785.77 268.62 1786.18 269.96 1786.56 271.28C1786.93 272.6 1787.32 273.93 1787.73 275.25H1787.8C1788.06 273.52 1788.36 271.73 1788.69 269.88C1789.01 268.04 1789.35 266.25 1789.68 264.51L1794.12 242.47C1794.17 242.23 1794.28 242.02 1794.45 241.84C1794.62 241.66 1794.88 241.51 1795.23 241.41C1795.58 241.3 1796.03 241.22 1796.59 241.16C1797.14 241.1 1797.84 241.07 1798.69 241.07C1799.54 241.07 1800.23 241.1 1800.79 241.16C1801.34 241.22 1801.77 241.3 1802.05 241.41C1802.33 241.52 1802.53 241.66 1802.63 241.84C1802.73 242.02 1802.75 242.23 1802.7 242.47L1794.24 284.64L1794.23 284.66Z" fill="white"/>
<path d="M1826.11 281.59C1826.11 281.76 1826.09 282.03 1826.06 282.4C1826.02 282.77 1825.96 283.2 1825.88 283.68C1825.8 284.16 1825.69 284.66 1825.55 285.16C1825.42 285.67 1825.26 286.13 1825.08 286.55C1824.9 286.97 1824.69 287.32 1824.45 287.58C1824.21 287.85 1823.93 287.98 1823.62 287.98H1802.19C1801.8 287.98 1801.45 287.93 1801.12 287.82C1800.8 287.71 1800.53 287.53 1800.33 287.28C1800.13 287.03 1799.99 286.71 1799.91 286.34C1799.83 285.97 1799.85 285.52 1799.95 284.98L1808.47 242.49C1808.49 242.25 1808.6 242.03 1808.8 241.84C1808.99 241.65 1809.29 241.49 1809.69 241.37C1810.09 241.25 1810.59 241.16 1811.21 241.1C1811.82 241.04 1812.6 241.01 1813.54 241.01C1814.48 241.01 1815.21 241.04 1815.82 241.1C1816.42 241.16 1816.89 241.25 1817.23 241.37C1817.57 241.49 1817.79 241.65 1817.9 241.84C1818.01 242.03 1818.04 242.25 1817.99 242.49L1810.47 280.14H1825.21C1825.55 280.14 1825.78 280.27 1825.91 280.54C1826.04 280.8 1826.11 281.15 1826.11 281.59Z" fill="white"/>
<path d="M1836.01 286.72C1835.96 286.96 1835.84 287.18 1835.65 287.37C1835.46 287.56 1835.16 287.72 1834.76 287.84C1834.36 287.96 1833.85 288.05 1833.22 288.11C1832.59 288.17 1831.82 288.2 1830.91 288.2C1830 288.2 1829.21 288.17 1828.62 288.11C1828.03 288.05 1827.57 287.96 1827.23 287.84C1826.89 287.72 1826.66 287.56 1826.54 287.37C1826.42 287.18 1826.4 286.96 1826.47 286.72L1835.32 242.49C1835.34 242.25 1835.46 242.03 1835.66 241.84C1835.86 241.65 1836.17 241.49 1836.56 241.37C1836.96 241.25 1837.46 241.16 1838.08 241.1C1838.7 241.04 1839.46 241.01 1840.37 241.01C1841.28 241.01 1842.04 241.04 1842.63 241.1C1843.22 241.16 1843.69 241.25 1844.04 241.37C1844.39 241.49 1844.62 241.65 1844.73 241.84C1844.84 242.03 1844.87 242.25 1844.82 242.49L1836 286.72H1836.01Z" fill="white"/>
<path d="M1880.49 284.66C1880.39 285.21 1880.21 285.71 1879.93 286.14C1879.65 286.57 1879.33 286.93 1878.95 287.22C1878.58 287.51 1878.17 287.72 1877.72 287.85C1877.27 287.98 1876.81 288.05 1876.33 288.05H1872.28C1871.41 288.05 1870.7 287.97 1870.15 287.8C1869.6 287.63 1869.12 287.33 1868.72 286.9C1868.32 286.47 1867.97 285.88 1867.65 285.13C1867.34 284.38 1867.01 283.43 1866.67 282.28L1859.77 261.4C1859.24 259.79 1858.75 258.16 1858.31 256.52C1857.86 254.88 1857.44 253.26 1857.03 251.64H1856.96C1856.72 253.54 1856.44 255.42 1856.13 257.26C1855.82 259.1 1855.47 260.95 1855.08 262.81L1850.31 286.69C1850.26 286.93 1850.15 287.15 1849.97 287.34C1849.79 287.53 1849.52 287.69 1849.16 287.81C1848.8 287.93 1848.33 288.03 1847.77 288.1C1847.2 288.17 1846.5 288.21 1845.66 288.21C1844.82 288.21 1844.12 288.17 1843.58 288.1C1843.04 288.03 1842.62 287.93 1842.33 287.81C1842.04 287.69 1841.85 287.53 1841.77 287.34C1841.69 287.15 1841.68 286.93 1841.75 286.69L1850.17 244.63C1850.39 243.5 1850.88 242.65 1851.65 242.08C1852.42 241.51 1853.29 241.23 1854.25 241.23H1859.2C1859.99 241.23 1860.68 241.32 1861.24 241.5C1861.81 241.68 1862.29 241.97 1862.69 242.37C1863.09 242.77 1863.44 243.28 1863.74 243.91C1864.04 244.54 1864.32 245.31 1864.59 246.22L1871.56 267.28C1872.02 268.63 1872.43 269.97 1872.81 271.29C1873.18 272.61 1873.57 273.94 1873.98 275.26H1874.05C1874.31 273.53 1874.61 271.74 1874.94 269.89C1875.26 268.05 1875.6 266.26 1875.93 264.52L1880.37 242.48C1880.42 242.24 1880.53 242.03 1880.7 241.85C1880.87 241.67 1881.13 241.52 1881.48 241.42C1881.83 241.31 1882.28 241.23 1882.84 241.17C1883.39 241.11 1884.09 241.08 1884.94 241.08C1885.79 241.08 1886.48 241.11 1887.04 241.17C1887.59 241.23 1888.02 241.31 1888.3 241.42C1888.58 241.53 1888.78 241.67 1888.88 241.85C1888.98 242.03 1889 242.24 1888.95 242.48L1880.49 284.65V284.66Z" fill="white"/>
<path d="M1928.09 242.53C1928.09 242.96 1927.93 243.42 1927.62 243.9C1927.31 244.38 1926.8 245.01 1926.1 245.78L1909.55 263.3L1919.38 284.15C1919.57 284.63 1919.72 285.05 1919.81 285.4C1919.91 285.75 1919.95 286.07 1919.95 286.36C1919.95 286.7 1919.87 286.98 1919.72 287.21C1919.56 287.44 1919.29 287.63 1918.91 287.77C1918.52 287.91 1918 288.02 1917.34 288.09C1916.68 288.16 1915.84 288.2 1914.83 288.2C1913.82 288.2 1913 288.17 1912.37 288.11C1911.74 288.05 1911.25 287.96 1910.89 287.84C1910.53 287.72 1910.26 287.55 1910.1 287.33C1909.93 287.11 1909.8 286.86 1909.7 286.57L1899.8 264.42L1895.43 286.68C1895.38 286.94 1895.26 287.17 1895.07 287.35C1894.88 287.53 1894.58 287.69 1894.18 287.82C1893.78 287.95 1893.28 288.05 1892.66 288.11C1892.05 288.17 1891.28 288.2 1890.37 288.2C1889.46 288.2 1888.67 288.17 1888.08 288.11C1887.49 288.05 1887.03 287.95 1886.69 287.82C1886.35 287.69 1886.12 287.53 1886 287.35C1885.88 287.17 1885.86 286.95 1885.93 286.68L1894.74 242.49C1894.76 242.23 1894.87 242 1895.07 241.82C1895.26 241.64 1895.56 241.49 1895.96 241.37C1896.36 241.25 1896.86 241.16 1897.48 241.1C1898.09 241.04 1898.87 241.01 1899.81 241.01C1900.75 241.01 1901.48 241.04 1902.07 241.1C1902.66 241.16 1903.12 241.25 1903.46 241.37C1903.8 241.49 1904.03 241.64 1904.15 241.82C1904.27 242 1904.31 242.22 1904.26 242.49L1900.29 262.47L1917.61 242.63C1917.85 242.34 1918.11 242.09 1918.39 241.87C1918.67 241.65 1919.02 241.48 1919.46 241.36C1919.89 241.24 1920.42 241.15 1921.05 241.09C1921.68 241.03 1922.46 241 1923.4 241C1924.34 241 1925.15 241.03 1925.77 241.09C1926.39 241.15 1926.86 241.25 1927.2 241.38C1927.54 241.51 1927.77 241.67 1927.91 241.85C1928.04 242.03 1928.11 242.25 1928.11 242.52L1928.09 242.53Z" fill="white"/>
<path d="M2104.75 279.56L2118.56 210.17C2118.68 209.57 2118.74 208.94 2118.74 208.28C2118.74 205.88 2117.21 203.96 2114.16 202.51C2112.24 201.56 2111.28 200.64 2111.28 199.75C2111.28 199.33 2111.31 198.92 2111.37 198.5V197.07C2111.37 194.4 2111.5 192.72 2111.77 192.03C2112.04 191.35 2112.77 191 2113.97 191H2136.19C2137.2 191 2177.82 191.28 2178.03 191.85C2178.24 192.41 2178.34 193.89 2178.34 196.26C2178.34 199.05 2178.28 201.78 2178.16 202.43C2178.04 203.08 2137.62 202.62 2136.9 203.03C2135.1 204.23 2133.96 205.26 2133.49 206.13C2133.01 207 2132.41 209.2 2131.69 212.74L2108.29 329.53L2106.85 336.63C2106.73 337.29 2106.1 337.62 2104.96 337.62H2086.91C2086.13 337.62 2085.53 337.26 2085.11 336.54C2084.69 335.82 2084.09 333.48 2083.31 329.53L2059.91 210.14C2059.37 207.14 2057.93 204.96 2055.6 203.58C2054.4 202.87 2053.67 202.32 2053.4 201.93C2053.13 201.54 2053 200.73 2053 199.48C2053 199.06 2053.03 198.65 2053.09 198.23C2053.15 197.58 2053.18 196.95 2053.18 196.36C2053.18 195.94 2053.15 195.56 2053.09 195.2V193.95C2053.08 191.98 2053.8 191 2055.24 191H2096.09C2097.47 191 2098.16 192.25 2098.16 194.74C2098.16 194.8 2098.1 196.52 2097.98 199.91C2097.86 200.68 2097.23 201.34 2096.09 201.87C2093.45 203.12 2092.14 205.13 2092.14 207.88C2092.14 208.54 2092.23 209.29 2092.41 210.12L2104.75 279.55V279.56Z" fill="black"/>
<path d="M2275.75 279.56L2289.56 210.17C2289.68 209.57 2289.74 208.94 2289.74 208.28C2289.74 205.88 2288.21 203.96 2285.16 202.51C2283.24 201.56 2282.28 200.64 2282.28 199.75C2282.28 199.33 2282.31 198.92 2282.37 198.5V197.07C2282.37 194.4 2282.5 192.72 2282.77 192.03C2283.04 191.35 2283.77 191 2284.97 191H2307.19C2308.2 191 2348.82 191.28 2349.03 191.85C2349.24 192.41 2349.34 193.89 2349.34 196.26C2349.34 199.05 2349.28 201.78 2349.16 202.43C2349.04 203.08 2308.62 202.62 2307.9 203.03C2306.1 204.23 2304.96 205.26 2304.49 206.13C2304.01 207 2303.41 209.2 2302.69 212.74L2279.29 329.53L2277.85 336.63C2277.73 337.29 2277.1 337.62 2275.96 337.62H2257.91C2257.13 337.62 2256.53 337.26 2256.11 336.54C2255.69 335.82 2255.09 333.48 2254.31 329.53L2230.91 210.14C2230.37 207.14 2228.93 204.96 2226.6 203.58C2225.4 202.87 2224.67 202.32 2224.4 201.93C2224.13 201.54 2224 200.73 2224 199.48C2224 199.06 2224.03 198.65 2224.09 198.23C2224.15 197.58 2224.18 196.95 2224.18 196.36C2224.18 195.94 2224.15 195.56 2224.09 195.2V193.95C2224.08 191.98 2224.8 191 2226.24 191H2267.09C2268.47 191 2269.16 192.25 2269.16 194.74C2269.16 194.8 2269.1 196.52 2268.98 199.91C2268.86 200.68 2268.23 201.34 2267.09 201.87C2264.45 203.12 2263.14 205.13 2263.14 207.88C2263.14 208.54 2263.23 209.29 2263.41 210.12L2275.75 279.55V279.56Z" fill="#0A2A5A"/>
<path d="M2446.75 279.56L2460.56 210.17C2460.68 209.57 2460.74 208.94 2460.74 208.28C2460.74 205.88 2459.21 203.96 2456.16 202.51C2454.24 201.56 2453.28 200.64 2453.28 199.75C2453.28 199.33 2453.31 198.92 2453.37 198.5V197.07C2453.37 194.4 2453.5 192.72 2453.77 192.03C2454.04 191.35 2454.77 191 2455.97 191H2478.19C2479.2 191 2519.82 191.28 2520.03 191.85C2520.24 192.41 2520.34 193.89 2520.34 196.26C2520.34 199.05 2520.28 201.78 2520.16 202.43C2520.04 203.08 2479.62 202.62 2478.9 203.03C2477.1 204.23 2475.96 205.26 2475.49 206.13C2475.01 207 2474.41 209.2 2473.69 212.74L2450.29 329.53L2448.85 336.63C2448.73 337.29 2448.1 337.62 2446.96 337.62H2428.91C2428.13 337.62 2427.53 337.26 2427.11 336.54C2426.69 335.82 2426.09 333.48 2425.31 329.53L2401.91 210.14C2401.37 207.14 2399.93 204.96 2397.6 203.58C2396.4 202.87 2395.67 202.32 2395.4 201.93C2395.13 201.54 2395 200.73 2395 199.48C2395 199.06 2395.03 198.65 2395.09 198.23C2395.15 197.58 2395.18 196.95 2395.18 196.36C2395.18 195.94 2395.15 195.56 2395.09 195.2V193.95C2395.08 191.98 2395.8 191 2397.24 191H2438.09C2439.47 191 2440.16 192.25 2440.16 194.74C2440.16 194.8 2440.1 196.52 2439.98 199.91C2439.86 200.68 2439.23 201.34 2438.09 201.87C2435.45 203.12 2434.14 205.13 2434.14 207.88C2434.14 208.54 2434.23 209.29 2434.41 210.12L2446.75 279.55V279.56Z" fill="white"/>
</svg>
