<svg width="275" height="147" viewBox="0 0 275 147" fill="none" xmlns="http://www.w3.org/2000/svg">
<path d="M51.75 88.56L65.56 19.17C65.68 18.57 65.74 17.94 65.74 17.28C65.74 14.88 64.21 12.96 61.16 11.51C59.24 10.56 58.28 9.64 58.28 8.75C58.28 8.33 58.31 7.92 58.37 7.5V6.07C58.37 3.4 58.5 1.72 58.77 1.03C59.04 0.35 59.77 0 60.97 0H83.19C84.2 0 184.82 0.28 185.03 0.85C185.24 1.41 185.34 2.89 185.34 5.26C185.34 8.05 185.28 10.78 185.16 11.43C185.04 12.08 84.62 11.62 83.9 12.03C82.1 13.23 80.96 14.26 80.49 15.13C80.01 16 79.41 18.2 78.69 21.74L55.29 138.53L53.85 145.63C53.73 146.29 53.1 146.62 51.96 146.62H33.91C33.13 146.62 32.53 146.26 32.11 145.54C31.69 144.82 31.09 142.48 30.31 138.53L6.91 19.14C6.37 16.14 4.93 13.96 2.6 12.58C1.4 11.87 0.67 11.32 0.4 10.93C0.13 10.54 0 9.73 0 8.48C0 8.06 0.03 7.65 0.09 7.23C0.15 6.58 0.18 5.95 0.18 5.36C0.18 4.94 0.15 4.56 0.09 4.2V2.95C0.08 0.98 0.8 0 2.24 0H43.09C44.47 0 45.16 1.25 45.16 3.74C45.16 3.8 45.1 5.52 44.98 8.91C44.86 9.68 44.23 10.34 43.09 10.87C40.45 12.12 39.14 14.13 39.14 16.88C39.14 17.54 39.23 18.29 39.41 19.12L51.75 88.55V88.56Z" fill="white"/>
<path d="M230.19 67.99L64.14 66.75C62.95 66.75 61.98 65.78 61.98 64.59L77.24 6.07C77.24 4.88 78.21 3.91 79.4 3.91H178.51C210.48 3.91 236.39 29.82 236.39 61.79C236.39 65.21 233.61 67.99 230.19 67.99Z" stroke="white" stroke-width="7" stroke-miterlimit="10"/>
<path d="M227.48 35.59L191.45 35.68C189.28 35.68 187.53 33.91 187.53 31.74V11.69C187.53 9.52 189.29 7.75 191.47 7.75C191.96 7.75 192.45 7.84 192.9 8.02C203.72 12.21 204.92 12.06 219.51 27.1C219.63 27.23 219.75 27.36 219.86 27.51L221.31 29.47C223.23 32.07 230.73 35.59 227.49 35.58L227.48 35.59Z" fill="white" stroke="white" stroke-width="7" stroke-miterlimit="10"/>
<path d="M189.24 80.85C196.199 80.85 201.84 75.2088 201.84 68.25C201.84 61.2912 196.199 55.65 189.24 55.65C182.281 55.65 176.64 61.2912 176.64 68.25C176.64 75.2088 182.281 80.85 189.24 80.85Z" fill="white" stroke="white" stroke-width="7" stroke-miterlimit="10"/>
<path d="M231.29 65.28L68.29 64.03L74.65 45.96L231.29 46.21V65.28Z" fill="white" stroke="white" stroke-width="7" stroke-miterlimit="10"/>
<path d="M106.88 20.04H99.4301C98.6679 20.04 98.05 20.6579 98.05 21.42V28.87C98.05 29.6322 98.6679 30.25 99.4301 30.25H106.88C107.642 30.25 108.26 29.6322 108.26 28.87V21.42C108.26 20.6579 107.642 20.04 106.88 20.04Z" fill="white" stroke="white" stroke-width="7" stroke-miterlimit="10"/>
<path d="M130.07 20.04H122.62C121.858 20.04 121.24 20.6579 121.24 21.42V28.87C121.24 29.6322 121.858 30.25 122.62 30.25H130.07C130.832 30.25 131.45 29.6322 131.45 28.87V21.42C131.45 20.6579 130.832 20.04 130.07 20.04Z" fill="white" stroke="white" stroke-width="7" stroke-miterlimit="10"/>
<path d="M153.26 20.04H145.81C145.048 20.04 144.43 20.6579 144.43 21.42V28.87C144.43 29.6322 145.048 30.25 145.81 30.25H153.26C154.022 30.25 154.64 29.6322 154.64 28.87V21.42C154.64 20.6579 154.022 20.04 153.26 20.04Z" fill="white" stroke="white" stroke-width="7" stroke-miterlimit="10"/>
<path d="M100.27 141.89C100.39 142.98 100.44 143.85 100.43 144.48C100.42 145.12 100.25 145.59 99.9201 145.91C99.5901 146.23 99.0601 146.43 98.3101 146.5C97.5601 146.58 96.5401 146.61 95.2401 146.61C94.3201 146.61 93.5801 146.59 93.0001 146.54C92.4201 146.49 91.9801 146.41 91.6601 146.29C91.3501 146.17 91.1301 145.99 91.0101 145.74C90.8901 145.5 90.8201 145.16 90.7901 144.74L89.5301 132.91H71.9701L67.1301 144.46C66.9601 144.88 66.7701 145.24 66.5501 145.53C66.3301 145.82 66.0201 146.04 65.6101 146.19C65.2001 146.34 64.6501 146.45 63.9701 146.51C63.2801 146.57 62.4201 146.6 61.3901 146.6C60.2801 146.6 59.4201 146.55 58.8101 146.46C58.2001 146.37 57.7901 146.15 57.5801 145.8C57.3801 145.45 57.3501 144.96 57.5101 144.32C57.6701 143.68 57.9701 142.83 58.4301 141.77L81.1201 89.55C81.3601 89.03 81.6001 88.62 81.8401 88.3C82.0801 87.98 82.4201 87.74 82.8701 87.57C83.3201 87.4 83.9201 87.3 84.6801 87.25C85.4401 87.2 86.4301 87.18 87.6601 87.18C89.0801 87.18 90.2101 87.2 91.0401 87.25C91.8701 87.3 92.5201 87.4 92.9701 87.57C93.4301 87.74 93.7301 87.99 93.8701 88.32C94.0101 88.65 94.1101 89.11 94.1601 89.68L100.27 141.86V141.89ZM86.0701 98.72H86.0301L75.5901 123.74H88.7401L86.0701 98.72Z" fill="white"/>
<path d="M140.71 142.17C140.61 142.87 140.43 143.49 140.15 144.04C139.87 144.59 139.55 145.04 139.17 145.4C138.8 145.76 138.39 146.03 137.94 146.2C137.49 146.37 137.03 146.45 136.55 146.45H132.5C131.63 146.45 130.92 146.34 130.37 146.13C129.82 145.92 129.34 145.54 128.94 144.99C128.54 144.44 128.19 143.7 127.87 142.76C127.56 141.82 127.23 140.62 126.89 139.17L119.99 112.88C119.46 110.85 118.97 108.8 118.53 106.74C118.08 104.68 117.66 102.63 117.25 100.6H117.18C116.94 103 116.66 105.35 116.35 107.67C116.04 109.99 115.69 112.32 115.3 114.65L110.53 144.72C110.48 145.02 110.37 145.3 110.19 145.54C110.01 145.78 109.74 145.98 109.38 146.13C109.02 146.28 108.55 146.4 107.99 146.49C107.42 146.58 106.72 146.63 105.88 146.63C105.04 146.63 104.34 146.58 103.8 146.49C103.26 146.4 102.84 146.28 102.55 146.13C102.26 145.98 102.07 145.78 101.99 145.54C101.91 145.3 101.9 145.02 101.97 144.72L110.39 91.77C110.61 90.35 111.1 89.28 111.87 88.56C112.64 87.85 113.51 87.49 114.47 87.49H119.42C120.21 87.49 120.9 87.6 121.46 87.83C122.03 88.06 122.51 88.42 122.91 88.92C123.31 89.42 123.66 90.07 123.96 90.85C124.26 91.64 124.54 92.61 124.81 93.76L131.78 120.28C132.24 121.98 132.65 123.66 133.03 125.33C133.4 127 133.79 128.67 134.2 130.33H134.27C134.53 128.15 134.83 125.89 135.16 123.57C135.49 121.25 135.82 119 136.15 116.81L140.59 89.06C140.64 88.76 140.75 88.49 140.92 88.26C141.09 88.03 141.35 87.85 141.7 87.71C142.05 87.57 142.5 87.47 143.05 87.39C143.6 87.31 144.3 87.28 145.15 87.28C146 87.28 146.69 87.32 147.25 87.39C147.8 87.47 148.23 87.57 148.51 87.71C148.79 87.85 148.99 88.03 149.09 88.26C149.19 88.49 149.21 88.75 149.16 89.06L140.7 142.15L140.71 142.17Z" fill="white"/>
<path d="M172.58 138.3C172.58 138.51 172.56 138.85 172.53 139.32C172.49 139.79 172.43 140.33 172.35 140.93C172.27 141.54 172.16 142.16 172.02 142.8C171.89 143.44 171.73 144.02 171.55 144.55C171.37 145.08 171.16 145.51 170.92 145.85C170.68 146.18 170.4 146.35 170.09 146.35H148.66C148.27 146.35 147.92 146.28 147.59 146.15C147.26 146.02 147 145.79 146.8 145.47C146.59 145.15 146.46 144.76 146.38 144.29C146.31 143.82 146.32 143.25 146.42 142.58L154.95 89.08C154.97 88.78 155.08 88.5 155.28 88.26C155.48 88.02 155.77 87.82 156.17 87.67C156.57 87.52 157.07 87.41 157.69 87.33C158.3 87.25 159.08 87.22 160.02 87.22C160.96 87.22 161.69 87.26 162.3 87.33C162.9 87.41 163.37 87.52 163.71 87.67C164.05 87.82 164.27 88.02 164.38 88.26C164.49 88.5 164.52 88.78 164.47 89.08L156.95 136.48H171.69C172.03 136.48 172.26 136.65 172.39 136.98C172.52 137.31 172.59 137.75 172.59 138.3H172.58Z" fill="white"/>
<path d="M182.48 144.76C182.43 145.06 182.31 145.34 182.12 145.58C181.93 145.82 181.63 146.02 181.23 146.17C180.83 146.32 180.32 146.43 179.69 146.51C179.06 146.59 178.29 146.62 177.38 146.62C176.47 146.62 175.68 146.58 175.09 146.51C174.5 146.43 174.04 146.32 173.7 146.17C173.36 146.02 173.13 145.82 173.01 145.58C172.89 145.34 172.87 145.06 172.94 144.76L181.79 89.08C181.81 88.78 181.93 88.5 182.13 88.26C182.33 88.02 182.64 87.82 183.03 87.67C183.43 87.52 183.93 87.41 184.55 87.33C185.16 87.25 185.93 87.22 186.84 87.22C187.75 87.22 188.51 87.26 189.1 87.33C189.69 87.41 190.16 87.52 190.51 87.67C190.86 87.82 191.09 88.02 191.2 88.26C191.31 88.5 191.34 88.78 191.29 89.08L182.47 144.76H182.48Z" fill="white"/>
<path d="M226.97 142.17C226.87 142.87 226.69 143.49 226.41 144.04C226.13 144.59 225.81 145.04 225.43 145.4C225.06 145.76 224.65 146.03 224.2 146.2C223.75 146.37 223.29 146.45 222.81 146.45H218.76C217.89 146.45 217.18 146.34 216.63 146.13C216.08 145.92 215.6 145.54 215.2 144.99C214.8 144.44 214.45 143.7 214.13 142.76C213.82 141.82 213.49 140.62 213.15 139.17L206.25 112.88C205.72 110.85 205.23 108.8 204.79 106.74C204.34 104.68 203.92 102.63 203.51 100.6H203.44C203.2 103 202.92 105.35 202.61 107.67C202.3 109.99 201.95 112.32 201.56 114.65L196.79 144.72C196.74 145.02 196.63 145.3 196.45 145.54C196.27 145.78 196 145.98 195.64 146.13C195.28 146.28 194.81 146.4 194.25 146.49C193.68 146.58 192.98 146.63 192.14 146.63C191.3 146.63 190.6 146.58 190.06 146.49C189.52 146.4 189.1 146.28 188.81 146.13C188.52 145.98 188.33 145.78 188.25 145.54C188.17 145.3 188.16 145.02 188.23 144.72L196.65 91.77C196.87 90.35 197.36 89.28 198.13 88.56C198.9 87.85 199.77 87.49 200.73 87.49H205.68C206.47 87.49 207.16 87.6 207.72 87.83C208.29 88.06 208.77 88.42 209.17 88.92C209.57 89.42 209.92 90.07 210.22 90.85C210.52 91.64 210.8 92.61 211.07 93.76L218.04 120.28C218.5 121.98 218.91 123.66 219.29 125.33C219.66 127 220.05 128.67 220.46 130.33H220.53C220.79 128.15 221.09 125.89 221.42 123.57C221.74 121.25 222.08 119 222.41 116.81L226.85 89.06C226.9 88.76 227.01 88.49 227.18 88.26C227.35 88.03 227.61 87.85 227.96 87.71C228.31 87.57 228.76 87.47 229.32 87.39C229.87 87.31 230.57 87.28 231.42 87.28C232.27 87.28 232.96 87.32 233.52 87.39C234.07 87.47 234.5 87.57 234.78 87.71C235.06 87.85 235.26 88.03 235.36 88.26C235.46 88.49 235.48 88.75 235.43 89.06L226.97 142.15V142.17Z" fill="white"/>
<path d="M274.56 89.13C274.56 89.68 274.4 90.25 274.09 90.86C273.78 91.47 273.27 92.26 272.57 93.23L256.02 115.29L265.85 141.54C266.04 142.15 266.19 142.67 266.28 143.11C266.38 143.55 266.42 143.95 266.42 144.32C266.42 144.74 266.34 145.1 266.19 145.39C266.03 145.68 265.76 145.91 265.38 146.1C264.99 146.28 264.47 146.42 263.81 146.51C263.15 146.6 262.31 146.65 261.3 146.65C260.29 146.65 259.47 146.61 258.84 146.54C258.21 146.46 257.72 146.35 257.36 146.2C257 146.05 256.73 145.84 256.57 145.56C256.4 145.29 256.27 144.97 256.17 144.6L246.27 116.71L241.9 144.73C241.85 145.06 241.73 145.34 241.54 145.57C241.35 145.8 241.05 145.99 240.65 146.16C240.25 146.33 239.75 146.45 239.13 146.52C238.52 146.6 237.75 146.63 236.84 146.63C235.93 146.63 235.14 146.59 234.55 146.52C233.96 146.44 233.5 146.32 233.16 146.16C232.82 145.99 232.59 145.8 232.47 145.57C232.35 145.34 232.33 145.06 232.4 144.73L241.22 89.1C241.24 88.77 241.35 88.49 241.55 88.26C241.74 88.03 242.04 87.84 242.44 87.69C242.84 87.54 243.34 87.43 243.96 87.35C244.57 87.27 245.35 87.24 246.29 87.24C247.23 87.24 247.96 87.28 248.55 87.35C249.14 87.43 249.6 87.54 249.94 87.69C250.28 87.84 250.51 88.03 250.63 88.26C250.75 88.49 250.79 88.77 250.74 89.1L246.77 114.26L264.11 89.29C264.35 88.93 264.61 88.61 264.89 88.33C265.17 88.06 265.52 87.84 265.96 87.69C266.39 87.54 266.92 87.43 267.55 87.35C268.18 87.27 268.96 87.24 269.9 87.24C270.84 87.24 271.65 87.28 272.27 87.35C272.89 87.43 273.36 87.55 273.7 87.71C274.04 87.88 274.27 88.07 274.41 88.3C274.54 88.53 274.61 88.81 274.61 89.14L274.56 89.13Z" fill="white"/>
</svg>
